<?xml version="1.0" encoding="UTF-8" standalone="no"?>
<svg
   sodipodi:docname="graphics.svg"
   inkscape:version="1.1.1 (1:1.1+202109281949+c3084ef5ed)"
   id="svg8"
   version="1.1"
   viewBox="0 0 74.308167 96.77652"
   height="96.77652mm"
   width="74.308167mm"
   xmlns:inkscape="http://www.inkscape.org/namespaces/inkscape"
   xmlns:sodipodi="http://sodipodi.sourceforge.net/DTD/sodipodi-0.dtd"
   xmlns:xlink="http://www.w3.org/1999/xlink"
   xmlns="http://www.w3.org/2000/svg"
   xmlns:svg="http://www.w3.org/2000/svg"
   xmlns:rdf="http://www.w3.org/1999/02/22-rdf-syntax-ns#"
   xmlns:cc="http://creativecommons.org/ns#"
   xmlns:dc="http://purl.org/dc/elements/1.1/">
  <defs
     id="defs2">
    <linearGradient
       gradientUnits="userSpaceOnUse"
       id="defitem29"
       y2="485.909"
       x2="655.35199"
       y1="807.466"
       x1="649.42902">
      <stop
         id="stop92"
         offset="0.0000000"
         style="stop-color:#ffffff;stop-opacity:1.0000000;" />
      <stop
         id="stop93"
         offset="1.0000000"
         style="stop-color:#ffffff;stop-opacity:0.13756600;" />
    </linearGradient>
    <linearGradient
       xlink:href="#defitem29"
       id="linearGradient3448"
       gradientUnits="userSpaceOnUse"
       x1="649.42902"
       y1="807.466"
       x2="655.35199"
       y2="485.909" />
    <radialGradient
       gradientUnits="userSpaceOnUse"
       id="defitem28"
       fy="345.56"
       fx="1049.72"
       r="1202.15"
       cy="345.56"
       cx="1049.72">
      <stop
         id="stop89"
         offset="0.0000000"
         style="stop-color:#ffffff;stop-opacity:1.0000000;" />
      <stop
         id="stop90"
         offset="1.0000000"
         style="stop-color:#a8a8a8;stop-opacity:1.0000000;" />
    </radialGradient>
    <radialGradient
       xlink:href="#defitem28"
       id="radialGradient3446"
       gradientUnits="userSpaceOnUse"
       cx="1092.7045"
       cy="64.845284"
       fx="1089.4004"
       fy="64.844765"
       r="1202.15" />
    <linearGradient
       gradientUnits="userSpaceOnUse"
       id="defitem30"
       y2="636.70697"
       x2="980"
       y1="636.70697"
       x1="287.5">
      <stop
         id="stop95"
         offset="0.0000000"
         style="stop-color:#464646;stop-opacity:1.0000000;" />
      <stop
         id="stop96"
         offset="1.0000000"
         style="stop-color:#c2c2c2;stop-opacity:1.0000000;" />
    </linearGradient>
    <linearGradient
       xlink:href="#defitem30"
       id="linearGradient3444"
       gradientUnits="userSpaceOnUse"
       gradientTransform="matrix(1,0,0,1.016038,0,-11.73855)"
       x1="287.5"
       y1="636.70697"
       x2="980"
       y2="636.70697" />
    <linearGradient
       gradientUnits="userSpaceOnUse"
       id="defitem27"
       y2="317.44699"
       x2="985.98199"
       y1="403.18799"
       x1="921.091">
      <stop
         id="stop86"
         offset="0.0000000"
         style="stop-color:#7e7e7e;stop-opacity:1.0000000;" />
      <stop
         id="stop87"
         offset="1.0000000"
         style="stop-color:#e5e5e5;stop-opacity:1.0000000;" />
    </linearGradient>
    <linearGradient
       xlink:href="#defitem27"
       id="linearGradient3442"
       gradientUnits="userSpaceOnUse"
       x1="921.091"
       y1="403.18799"
       x2="985.98199"
       y2="317.44699" />
    <linearGradient
       gradientUnits="userSpaceOnUse"
       id="defitem26"
       y2="360.27499"
       x2="293.37"
       y1="346.30399"
       x1="530.76099">
      <stop
         id="stop83"
         offset="0.0000000"
         style="stop-color:#5f5f5f;stop-opacity:1.0000000;" />
      <stop
         id="stop84"
         offset="1.0000000"
         style="stop-color:#e5e5e5;stop-opacity:1.0000000;" />
    </linearGradient>
    <linearGradient
       xlink:href="#defitem26"
       id="linearGradient3440"
       gradientUnits="userSpaceOnUse"
       x1="530.76099"
       y1="346.30399"
       x2="293.37"
       y2="360.27499" />
    <linearGradient
       gradientUnits="userSpaceOnUse"
       id="defitem25"
       y2="337.60999"
       x2="308.75"
       y1="412.91901"
       x1="164.013">
      <stop
         id="stop80"
         offset="0.0000000"
         style="stop-color:#ffffff;stop-opacity:1.0000000;" />
      <stop
         id="stop81"
         offset="1.0000000"
         style="stop-color:#bfbfbf;stop-opacity:1.0000000;" />
    </linearGradient>
    <linearGradient
       xlink:href="#defitem25"
       id="linearGradient3438"
       gradientUnits="userSpaceOnUse"
       x1="164.013"
       y1="412.91901"
       x2="308.75"
       y2="337.60999" />
    <linearGradient
       gradientUnits="userSpaceOnUse"
       id="defitem24"
       y2="380.47198"
       x2="992.48901"
       y1="270.854"
       x1="1094.25">
      <stop
         id="stop77"
         offset="0.0000000"
         style="stop-color:#6a6a6a;stop-opacity:1.0000000;" />
      <stop
         id="stop78"
         offset="1.0000000"
         style="stop-color:#e6e6e6;stop-opacity:1.0000000;" />
    </linearGradient>
    <linearGradient
       xlink:href="#defitem24"
       id="linearGradient3436"
       gradientUnits="userSpaceOnUse"
       x1="1094.25"
       y1="270.854"
       x2="992.48901"
       y2="380.47198" />
    <linearGradient
       gradientUnits="userSpaceOnUse"
       id="defitem23"
       y2="549.37799"
       x2="1049.84"
       y1="476.465"
       x1="1170.91">
      <stop
         id="stop74"
         offset="0.0000000"
         style="stop-color:#5f5f5f;stop-opacity:1.0000000;" />
      <stop
         id="stop75"
         offset="1.0000000"
         style="stop-color:#ebebeb;stop-opacity:1.0000000;" />
    </linearGradient>
    <linearGradient
       xlink:href="#defitem23"
       id="linearGradient3434"
       gradientUnits="userSpaceOnUse"
       x1="1170.91"
       y1="476.465"
       x2="1049.84"
       y2="549.37799" />
    <linearGradient
       gradientUnits="userSpaceOnUse"
       id="defitem22"
       y2="313.276"
       x2="576.14899"
       y1="105.486"
       x1="783.716">
      <stop
         id="stop71"
         offset="0.0000000"
         style="stop-color:#5a5a5a;stop-opacity:1.0000000;" />
      <stop
         id="stop72"
         offset="1.0000000"
         style="stop-color:#c7c7c7;stop-opacity:1.0000000;" />
    </linearGradient>
    <linearGradient
       xlink:href="#defitem22"
       id="linearGradient3432"
       gradientUnits="userSpaceOnUse"
       x1="783.716"
       y1="105.486"
       x2="576.14899"
       y2="313.276" />
    <linearGradient
       gradientUnits="userSpaceOnUse"
       id="defitem21"
       y2="484.716"
       x2="128.05499"
       y1="418.698"
       x1="280.04401">
      <stop
         id="stop68"
         offset="0.0000000"
         style="stop-color:#666666;stop-opacity:1.0000000;" />
      <stop
         id="stop69"
         offset="1.0000000"
         style="stop-color:#d8d8d8;stop-opacity:1.0000000;" />
    </linearGradient>
    <linearGradient
       xlink:href="#defitem21"
       id="linearGradient3430"
       gradientUnits="userSpaceOnUse"
       x1="280.04401"
       y1="418.698"
       x2="128.05499"
       y2="484.716" />
    <linearGradient
       gradientUnits="userSpaceOnUse"
       id="defitem20"
       y2="584.40997"
       x2="220"
       y1="636.95398"
       x1="129.687">
      <stop
         id="stop65"
         offset="0.0000000"
         style="stop-color:#ffffff;stop-opacity:1.0000000;" />
      <stop
         id="stop66"
         offset="1.0000000"
         style="stop-color:#bbbbbb;stop-opacity:1.0000000;" />
    </linearGradient>
    <linearGradient
       xlink:href="#defitem20"
       id="linearGradient3428"
       gradientUnits="userSpaceOnUse"
       x1="129.687"
       y1="636.95398"
       x2="220"
       y2="584.40997" />
    <linearGradient
       gradientUnits="userSpaceOnUse"
       id="defitem19"
       y2="583.75299"
       x2="1127.98"
       y1="629.02802"
       x1="1048.72">
      <stop
         id="stop62"
         offset="0.0000000"
         style="stop-color:#5e5e5e;stop-opacity:1.0000000;" />
      <stop
         id="stop63"
         offset="1.0000000"
         style="stop-color:#ededed;stop-opacity:1.0000000;" />
    </linearGradient>
    <linearGradient
       xlink:href="#defitem19"
       id="linearGradient3426"
       gradientUnits="userSpaceOnUse"
       x1="1048.72"
       y1="629.02802"
       x2="1127.98"
       y2="583.75299" />
    <linearGradient
       gradientUnits="userSpaceOnUse"
       id="defitem18"
       y2="291.97699"
       x2="581.32397"
       y1="387.27301"
       x1="370.022">
      <stop
         id="stop59"
         offset="0.0000000"
         style="stop-color:#636363;stop-opacity:1.0000000;" />
      <stop
         id="stop60"
         offset="1.0000000"
         style="stop-color:#d6d6d6;stop-opacity:1.0000000;" />
    </linearGradient>
    <linearGradient
       xlink:href="#defitem18"
       id="linearGradient3424"
       gradientUnits="userSpaceOnUse"
       x1="370.022"
       y1="387.27301"
       x2="581.32397"
       y2="291.97699" />
    <linearGradient
       gradientUnits="userSpaceOnUse"
       id="defitem17"
       y2="351.939"
       x2="909.59399"
       y1="351.939"
       x1="732.15601">
      <stop
         id="stop56"
         offset="0.0000000"
         style="stop-color:#676767;stop-opacity:1.0000000;" />
      <stop
         id="stop57"
         offset="1.0000000"
         style="stop-color:#d3d3d3;stop-opacity:1.0000000;" />
    </linearGradient>
    <linearGradient
       xlink:href="#defitem17"
       id="linearGradient3422"
       gradientUnits="userSpaceOnUse"
       x1="732.15601"
       y1="351.939"
       x2="909.59399"
       y2="351.939" />
    <linearGradient
       gradientUnits="userSpaceOnUse"
       id="defitem16"
       y2="494.71301"
       x2="1073.01"
       y1="494.71301"
       x1="1014.43">
      <stop
         id="stop53"
         offset="0.0000000"
         style="stop-color:#666666;stop-opacity:1.0000000;" />
      <stop
         id="stop54"
         offset="1.0000000"
         style="stop-color:#dcdcdc;stop-opacity:1.0000000;" />
    </linearGradient>
    <linearGradient
       xlink:href="#defitem16"
       id="linearGradient3420"
       gradientUnits="userSpaceOnUse"
       x1="1014.43"
       y1="494.71301"
       x2="1073.01"
       y2="494.71301" />
    <linearGradient
       gradientUnits="userSpaceOnUse"
       id="defitem15"
       y2="516.37"
       x2="193.27699"
       y1="452.388"
       x1="272.59201">
      <stop
         id="stop50"
         offset="0.0000000"
         style="stop-color:#6e6e6e;stop-opacity:1.0000000;" />
      <stop
         id="stop51"
         offset="1.0000000"
         style="stop-color:#d8d8d8;stop-opacity:1.0000000;" />
    </linearGradient>
    <linearGradient
       xlink:href="#defitem15"
       id="linearGradient3418"
       gradientUnits="userSpaceOnUse"
       x1="272.59201"
       y1="452.388"
       x2="193.27699"
       y2="516.37" />
    <radialGradient
       gradientUnits="userSpaceOnUse"
       id="defitem14"
       fy="211.088"
       fx="1037.22"
       r="1164.28"
       cy="211.088"
       cx="1037.22">
      <stop
         id="stop47"
         offset="0.0000000"
         style="stop-color:#ffffff;stop-opacity:1.0000000;" />
      <stop
         id="stop48"
         offset="1.0000000"
         style="stop-color:#aaaaaa;stop-opacity:1.0000000;" />
    </radialGradient>
    <radialGradient
       xlink:href="#defitem14"
       id="radialGradient3416"
       gradientUnits="userSpaceOnUse"
       cx="1037.22"
       cy="211.088"
       fx="1037.22"
       fy="211.088"
       r="1164.28" />
    <linearGradient
       gradientUnits="userSpaceOnUse"
       id="defitem13"
       y2="686.83002"
       x2="379.241"
       y1="732.12903"
       x1="342.64999">
      <stop
         id="stop44"
         offset="0.0000000"
         style="stop-color:#ffffff;stop-opacity:1.0000000;" />
      <stop
         id="stop45"
         offset="1.0000000"
         style="stop-color:#989898;stop-opacity:1.0000000;" />
    </linearGradient>
    <linearGradient
       xlink:href="#defitem13"
       id="linearGradient3414"
       gradientUnits="userSpaceOnUse"
       x1="342.64999"
       y1="732.12903"
       x2="379.241"
       y2="686.83002" />
    <radialGradient
       gradientUnits="userSpaceOnUse"
       id="defitem12"
       fy="484.409"
       fx="632.78101"
       r="540.27899"
       cy="484.409"
       cx="632.78101">
      <stop
         id="stop41"
         offset="0.0000000"
         style="stop-color:#ffffff;stop-opacity:1.0000000;" />
      <stop
         id="stop42"
         offset="1.0000000"
         style="stop-color:#ededed;stop-opacity:1.0000000;" />
    </radialGradient>
    <radialGradient
       xlink:href="#defitem12"
       id="radialGradient3412"
       gradientUnits="userSpaceOnUse"
       cx="632.78101"
       cy="484.409"
       fx="632.78101"
       fy="484.409"
       r="540.27899" />
    <radialGradient
       xlink:href="#linearGradient3682"
       id="radialGradient3817"
       gradientUnits="userSpaceOnUse"
       gradientTransform="matrix(1.1149219,0.2722306,-0.7507171,3.0745639,-471.08629,-148.32863)"
       cx="270.58316"
       cy="33.899986"
       fx="270.58316"
       fy="33.899986"
       r="19.571428" />
    <linearGradient
       id="linearGradient3682">
      <stop
         style="stop-color:#ff6d0f;stop-opacity:1;"
         offset="0"
         id="stop3684" />
      <stop
         style="stop-color:#ff1000;stop-opacity:1;"
         offset="1"
         id="stop3686" />
    </linearGradient>
    <radialGradient
       xlink:href="#linearGradient3864"
       id="radialGradient3661"
       gradientUnits="userSpaceOnUse"
       gradientTransform="matrix(0.6186598,0.9666542,-1.0332462,0.6612786,-327.27568,-255.84136)"
       cx="282.64584"
       cy="29.149046"
       fx="282.64584"
       fy="29.149046"
       r="19.571428" />
    <linearGradient
       id="linearGradient3864">
      <stop
         id="stop3866"
         offset="0"
         style="stop-color:#71b2f8;stop-opacity:1;" />
      <stop
         id="stop3868"
         offset="1"
         style="stop-color:#002795;stop-opacity:1;" />
    </linearGradient>
  </defs>
  <sodipodi:namedview
     inkscape:document-rotation="0"
     inkscape:showpageshadow="false"
     inkscape:snap-tangential="false"
     inkscape:window-maximized="1"
     inkscape:window-y="0"
     inkscape:window-x="0"
     inkscape:window-height="1054"
     inkscape:window-width="1920"
     inkscape:guide-bbox="true"
     showguides="false"
     showgrid="true"
     inkscape:current-layer="layer1"
     inkscape:document-units="mm"
     inkscape:cy="235.69086"
     inkscape:cx="324.34523"
     inkscape:zoom="0.92494039"
     inkscape:pageshadow="2"
     inkscape:pageopacity="0.0"
     borderopacity="1"
     bordercolor="#001cda"
     pagecolor="#ffffff"
     id="base"
     inkscape:pagecheckerboard="0"
     inkscape:snap-grids="false"
     inkscape:snap-global="false">
    <sodipodi:guide
       inkscape:color="rgb(0,0,255)"
       inkscape:label=""
       inkscape:locked="false"
       id="guide815"
       orientation="1,0"
       position="-45.890643,-138.38798" />
    <sodipodi:guide
       inkscape:color="rgb(0,0,255)"
       inkscape:label=""
       inkscape:locked="false"
       id="guide817"
       orientation="1,0"
       position="144.10936,-138.38798" />
    <inkscape:grid
       enabled="true"
       dotted="false"
       spacingy="1"
       spacingx="1"
       units="mm"
       id="grid857"
       type="xygrid"
       empspacing="1"
       originx="-55.890644"
       originy="-61.835499" />
  </sodipodi:namedview>
  <metadata
     id="metadata5">
    <rdf:RDF>
      <cc:Work
         rdf:about="">
        <dc:format>image/svg+xml</dc:format>
        <dc:type
           rdf:resource="http://purl.org/dc/dcmitype/StillImage" />
        <dc:creator>
          <cc:Agent>
            <dc:title>Matías Senger</dc:title>
          </cc:Agent>
        </dc:creator>
        <cc:license
           rdf:resource="http://creativecommons.org/publicdomain/zero/1.0/" />
      </cc:Work>
      <cc:License
         rdf:about="http://creativecommons.org/publicdomain/zero/1.0/">
        <cc:permits
           rdf:resource="http://creativecommons.org/ns#Reproduction" />
        <cc:permits
           rdf:resource="http://creativecommons.org/ns#Distribution" />
        <cc:permits
           rdf:resource="http://creativecommons.org/ns#DerivativeWorks" />
      </cc:License>
    </rdf:RDF>
  </metadata>
  <g
     id="layer1"
     inkscape:groupmode="layer"
     inkscape:label="Capa 1"
     transform="translate(-55.890643,-61.8355)">
    <path
       id="path2019"
       style="font-variation-settings:normal;vector-effect:none;fill:#000000;fill-opacity:1;fill-rule:evenodd;stroke:none;stroke-width:1.00157;stroke-linecap:butt;stroke-linejoin:miter;stroke-miterlimit:4;stroke-dasharray:none;stroke-dashoffset:0;stroke-opacity:1;stop-color:#000000"
       inkscape:transform-center-x="0.96220109"
       d="m 280.52539,233.70898 -12.59766,21.82032 h 8.1543 v 15.24804 h 8.88672 V 255.5293 h 8.1543 z m 133.98438,13.85352 c -3.00119,-0.002 -3.28085,0.10965 -3.56836,0.50195 -0.31949,0.43572 -0.40235,1.83355 -0.40235,6.73633 0,4.70737 -0.0837,6.20968 -0.35351,6.28516 -0.19472,0.055 -1.24198,0.2618 -2.32617,0.45898 -5.30529,0.96605 -13.07508,4.34782 -17.85743,7.77149 -10.53978,7.54535 -17.60051,18.62266 -20.01953,31.40429 -0.5415,2.86011 -0.61185,4.42622 -0.7207,16.30664 -0.0647,7.22841 -0.0473,13.42826 0.041,13.7793 0.25598,1.01978 1.54493,1.26172 6.72266,1.26172 h 4.77149 V 344.25 356.42969 h -5.06055 c -4.69074,0 -5.11477,0.0437 -5.80664,0.58789 -0.72292,0.57023 -0.7461,0.67502 -0.7461,3.68164 v 3.0957 h -1.95898 -1.95703 l -0.0957,-3.24804 c -0.13007,-4.43987 0.14702,-4.23533 -5.87696,-4.34766 -3.77414,-0.0702 -4.98736,5.2e-4 -5.79883,0.33984 l -1.02539,0.42969 v 36.69141 36.69336 l -1.81836,1.14843 c -2.31778,1.46381 -3.68107,2.98277 -4.79882,5.3418 l -0.88868,1.875 -0.0898,6.75586 c -0.0808,6.07087 -0.0398,6.80851 0.39844,7.29297 0.46579,0.51621 1.0715,0.53906 13.58008,0.53906 10.65908,0 13.15355,-0.071 13.4121,-0.38281 0.42776,-0.51164 0.4543,-12.34436 0.0352,-14.21485 -0.63,-2.81128 -3.37497,-6.22123 -5.96875,-7.41601 l -1.0957,-0.50586 -0.006,-27.26367 -0.006,-27.26367 h 1.98242 1.98242 v 2.86718 c 0,4.92246 1.14918,11.30559 2.95117,16.39453 4.70872,13.2974 15.08061,24.05755 28.11329,29.16993 l 2.3125,0.9082 0.0937,1.46094 c 0.0506,0.80368 0.0508,1.80626 0.004,2.22851 l -0.0879,0.76758 -8.92969,0.082 -8.93164,0.082 -0.54101,0.66992 c -0.52233,0.64702 -0.54102,1.47975 -0.54102,25.66211 v 24.9961 l -1.20117,0.53711 c -1.69175,0.759 -4.45431,3.61235 -5.46094,5.63867 -0.83763,1.68669 -0.84472,1.74129 -0.93554,7.26367 l -0.0918,5.56445 -2.13086,0.10743 c -1.69394,0.0853 -2.21393,0.21918 -2.5293,0.65039 -0.30948,0.4241 -0.39648,1.82287 -0.39648,6.38476 0,5.95797 0.0913,6.5128 1.13281,6.88281 0.23368,0.0831 8.3676,0.15872 18.07422,0.17383 l 17.64844,0.0176 0.69336,-0.69141 c 0.68655,-0.68704 0.69128,-0.73628 0.6875,-6.1582 -0.002,-3.00612 -0.0768,-5.73651 -0.16602,-6.06836 -0.22923,-0.85413 -1.27405,-1.23828 -3.36719,-1.23828 h -1.81054 l -0.0879,-5.5957 -0.0879,-5.59375 -0.88086,-1.8418 c -1.15019,-2.40366 -2.82424,-4.25208 -4.77149,-5.26953 l -1.57031,-0.82031 v -20.04297 -20.04297 l 22.16602,0.0723 22.16406,0.0723 v 19.95703 19.95703 l -1.13282,0.58008 c -1.75491,0.89847 -4.46324,3.75097 -5.39062,5.67774 -0.80194,1.66711 -0.82134,1.80742 -0.92188,7.29492 l -0.10351,5.59375 h -1.69531 c -1.65037,0 -2.71761,0.32702 -3.14258,0.96289 -0.1149,0.17144 -0.21078,2.93502 -0.21289,6.14062 -0.004,5.71495 0.009,5.84044 0.64648,6.43946 l 0.64844,0.61132 h 17.61719 c 18.51186,10e-4 18.89711,-0.0238 19.20703,-1.25976 0.0831,-0.33283 0.11132,-3.17406 0.0644,-6.3125 -0.0646,-4.19501 -0.18522,-5.80316 -0.45508,-6.07227 -0.21668,-0.21653 -1.28036,-0.40745 -2.59961,-0.46679 l -2.23242,-0.10157 -0.0918,-5.58203 -0.0918,-5.58008 -1.08008,-2.18359 c -0.83097,-1.68038 -1.45528,-2.49576 -2.70898,-3.53906 -0.89602,-0.74566 -2.03355,-1.52367 -2.52735,-1.72852 l -0.89843,-0.37304 -0.0762,-25.16797 c -0.0713,-23.71903 -0.10382,-25.19701 -0.58008,-25.67383 -0.46023,-0.46091 -1.30863,-0.51268 -9.48046,-0.58789 -4.93595,-0.045 -9.04185,-0.1908 -9.125,-0.32422 -0.0813,-0.1333 -0.11151,-1.14052 -0.0586,-2.23828 l 0.0937,-1.9961 1.96485,-0.75195 c 7.61631,-2.91039 14.8933,-8.15672 20.21484,-14.57617 6.94352,-8.37604 10.91529,-18.79611 11.39453,-29.89258 l 0.17774,-4.09961 h 1.9375 1.93945 v 27.16797 27.16797 l -1.28516,0.62305 c -2.59831,1.25779 -5.33397,4.56407 -6.08984,7.35937 -0.22488,0.83346 -0.34116,3.41932 -0.32227,7.47071 0.0204,5.41133 0.0854,6.26202 0.50586,6.72656 0.45767,0.50918 1.1245,0.5332 13.59766,0.5332 12.94632,0 13.12203,-0.007 13.42969,-0.58203 0.20711,-0.3908 0.28199,-2.79041 0.22265,-7.29492 l -0.0898,-6.71094 -0.88867,-1.87695 c -1.1153,-2.35386 -2.48033,-3.8763 -4.7793,-5.32813 l -1.79883,-1.13672 -0.0312,-36.61718 c -0.0234,-32.26164 -0.0767,-36.66815 -0.45312,-37.04493 -0.35086,-0.35046 -1.37407,-0.42773 -5.6836,-0.42773 -6.58499,0 -6.33789,-0.17227 -6.33789,4.42187 v 3.08594 h -1.98242 -1.98437 v -3.07226 c 0,-4.28117 0.25706,-4.11216 -6.40821,-4.29297 l -5.21875,-0.14258 v -12.03906 -12.03711 l 5.27344,-0.14258 c 5.11854,-0.1375 5.28767,-0.16144 5.8125,-0.81055 0.51092,-0.63365 0.53894,-1.26552 0.53516,-12.03906 -0.009,-14.63188 -0.41905,-18.63755 -2.57032,-25.16602 -5.35774,-16.25925 -19.95612,-29.36033 -36.23046,-32.51562 l -2.40821,-0.4668 -0.14062,-6.27343 c -0.11407,-5.06222 -0.22398,-6.35418 -0.56641,-6.69532 -0.34964,-0.34755 -1.6964,-0.43801 -7.59961,-0.50586 -1.7065,-0.0196 -3.00937,-0.0325 -4.00976,-0.0332 z m 1.40039,3.68945 c 0.79579,-0.002 1.8556,0.008 2.98632,0.0312 l 4.11133,0.0859 v 4.51758 4.51953 h -4.39062 -4.39063 v -4.50781 c 0,-2.70553 0.11187,-4.54501 0.2793,-4.60352 0.0767,-0.0264 0.6085,-0.0408 1.4043,-0.043 z m -177.44336,33.73828 -21.82032,12.59766 21.82032,12.59766 v -8.1543 h 15.24804 v -8.88672 H 238.4668 Z m 84.11718,0 v 8.1543 h -15.24804 v 8.88672 h 15.24804 v 8.1543 l 21.82032,-12.59766 z m 95.89063,38.44336 c 4.62591,0.004 6.44094,0.36708 9.82422,1.96485 8.27138,3.90607 13.34424,12.56355 12.75195,21.76758 -0.36457,5.66527 -2.40838,10.27668 -6.40625,14.45898 -2.98182,3.1193 -7.31976,5.47887 -11.5918,6.30273 -2.61074,0.5032 -6.97028,0.47912 -9.44531,-0.0527 -4.29468,-0.92245 -8.85976,-3.57039 -11.88867,-6.89453 -2.14738,-2.3567 -4.54505,-7.10967 -5.18164,-10.27344 -0.8869,-4.40808 -0.39684,-10.03555 1.19336,-13.67969 2.81998,-6.46194 7.67178,-10.78139 14.52539,-12.93359 1.81164,-0.56879 2.69615,-0.66296 6.21875,-0.66016 z m -142.39258,0.96485 v 15.24804 h -8.1543 l 12.59766,21.82032 12.59766,-21.82032 h -8.1543 v -15.24804 z m 144.7832,1.76953 c -1.23895,0.0442 -1.73384,0.40668 -1.94531,1.25 -0.35622,1.41903 0.34508,1.95347 3.04102,2.31445 6.12431,0.81943 10.47087,5.16035 11.24023,11.22852 0.15557,1.22887 0.42739,2.40929 0.60352,2.62109 0.43551,0.52483 2.08963,0.48651 2.63672,-0.0605 1.16349,-1.16351 -0.0716,-6.81703 -2.19336,-10.03515 -2.72043,-4.12619 -7.20409,-6.86679 -11.87891,-7.26172 -0.59556,-0.0503 -1.09092,-0.0714 -1.50391,-0.0566 z m -36.38085,5.90234 h 5.52929 5.53125 l -0.41992,0.64063 c -1.78632,2.72618 -3.27734,8.74547 -3.27734,13.23828 0,3.02785 0.82108,7.92245 1.57226,9.375 0.22624,0.43742 0.41016,0.86575 0.41016,0.95117 -0.005,0.0852 -2.10454,0.15625 -4.67188,0.15625 h -4.67382 V 344.25 Z m 62.74218,0 H 452.75 V 344.25 356.43164 h -4.7832 -4.78125 l 0.66601,-1.65234 c 2.30771,-5.71332 1.86511,-14.47303 -1.02344,-20.24414 -0.61904,-1.23648 -1.125,-2.29579 -1.125,-2.35547 0,-0.0621 2.48542,-0.10938 5.52344,-0.10938 z M 418.5332,333.25 c -5.22226,-0.0158 -10.03065,3.43929 -11.79101,8.76562 -0.93551,2.83285 -0.95026,4.93319 -0.0527,7.58594 1.31501,3.88666 4.30783,6.87741 8.10157,8.09961 v 0.002 c 2.50397,0.80625 4.2386,0.87641 6.5957,0.26563 2.53901,-0.65794 4.38361,-1.69998 6.07226,-3.42969 1.63454,-1.67412 2.59602,-3.34113 3.30664,-5.73633 1.93078,-6.50745 -2.90517,-13.93884 -9.97656,-15.33007 -0.75531,-0.1486 -1.50982,-0.22041 -2.25586,-0.22266 z m -53.3125,34.51172 h 1.98242 1.98438 v 2.26562 2.26563 h -1.98438 -1.98242 v -2.26563 z m 102.82618,0 h 1.98242 1.98242 v 2.26562 2.26563 h -1.98242 -1.98242 v -2.26563 z M 317.47656,387.5918 v 2.43164 h 2.32422 v -2.43164 z m 3.9043,0 v 2.43164 h 2.32422 v -2.43164 z m -78.5,0.28711 v 2.88476 h 3.53906 v -2.88476 z m 55.89453,0 v 2.88476 h 3.53906 v -2.88476 z m -86.58594,0.62304 v 8.84571 c 0,2.08887 0.52453,3.64463 1.57227,4.66601 1.04773,1.02136 2.64161,1.53125 4.7832,1.53125 2.14818,0 3.74719,-0.50989 4.79492,-1.53125 1.04774,-1.02138 1.57032,-2.57714 1.57032,-4.66601 v -8.84571 h -3.80469 v 8.84571 c 0,1.21905 -0.20156,2.09197 -0.60352,2.61914 -0.39537,0.52056 -1.04768,0.78125 -1.95703,0.78125 -0.90276,0 -1.55507,-0.26069 -1.95703,-0.78125 -0.39537,-0.52717 -0.5918,-1.40009 -0.5918,-2.61914 v -8.84571 z m 93.85157,0.54297 v 3.14258 h -1.75977 v 2.53125 h 1.75977 v 4.69531 c 0,1.39697 0.28926,2.38816 0.86914,2.97461 0.58646,0.57988 1.57958,0.86914 2.97656,0.86914 h 3.0332 v -2.52929 h -1.81836 c -0.60624,0 -1.01057,-0.0897 -1.21484,-0.26758 -0.20427,-0.18452 -0.30664,-0.53291 -0.30664,-1.04688 v -4.69531 h 3.64648 v -2.53125 h -3.64648 v -3.14258 z m 23.33593,0 v 3.14258 h -1.75781 v 2.53125 h 1.75781 v 4.69531 c 0,1.39697 0.29122,2.38816 0.8711,2.97461 0.58646,0.57988 1.57763,0.86914 2.97461,0.86914 h 3.03515 v -2.52929 h -1.81836 c -0.60624,0 -1.01252,-0.0897 -1.21679,-0.26758 -0.20427,-0.18452 -0.30664,-0.53291 -0.30664,-1.04688 v -4.69531 h 3.64843 v -2.53125 h -3.64843 v -3.14258 z m -38.40039,2.875 c -1.66056,0 -2.89139,0.28486 -3.69531,0.85156 -0.80392,0.56671 -1.20703,1.43644 -1.20703,2.60938 0,1.08727 0.31663,1.8979 0.94922,2.43164 0.63259,0.53364 1.73565,0.89791 3.31054,1.0957 l 0.62305,0.0801 c 0.71825,0.0857 1.19637,0.207 1.43359,0.36524 0.24381,0.15155 0.36524,0.38487 0.36524,0.70117 0,0.37571 -0.17419,0.66057 -0.52344,0.85156 -0.34924,0.19099 -0.8706,0.28516 -1.5625,0.28516 -0.76438,0 -1.5171,-0.0845 -2.26172,-0.25586 -0.73802,-0.17134 -1.46093,-0.42884 -2.16601,-0.77149 v 2.68946 c 0.82369,0.23052 1.62478,0.40154 2.40234,0.51367 0.78415,0.11867 1.542,0.17773 2.27344,0.17773 1.72645,0 3.02471,-0.29759 3.89453,-0.89062 0.86982,-0.59306 1.30469,-1.47867 1.30469,-2.65821 0,-1.1268 -0.31345,-1.9533 -0.93946,-2.48047 -0.626,-0.52724 -1.84413,-0.90616 -3.65625,-1.13671 l -0.62304,-0.0899 c -0.63918,-0.0726 -1.08358,-0.1845 -1.33399,-0.33594 -0.2438,-0.15155 -0.36718,-0.369 -0.36718,-0.65234 0,-0.3492 0.16149,-0.60474 0.48437,-0.76953 0.32948,-0.17134 0.83178,-0.25781 1.50391,-0.25781 0.626,0 1.29101,0.08 1.99609,0.23828 0.70508,0.15813 1.43556,0.39464 2.19336,0.71094 v -2.68946 c -0.84346,-0.21094 -1.62354,-0.36607 -2.3418,-0.46484 -0.71826,-0.0988 -1.40428,-0.14844 -2.05664,-0.14844 z m -55.28125,0.002 c -0.72485,0 -1.38863,0.15317 -1.98828,0.46289 -0.59965,0.30311 -1.16547,0.77805 -1.69922,1.42382 v -1.62109 h -3.53906 v 11.07031 h 3.53906 v -5.44531 c 0,-1.0082 0.21109,-1.79658 0.63281,-2.36328 0.42173,-0.57328 1.00221,-0.85938 1.74024,-0.85938 0.30311,0 0.57136,0.0655 0.80859,0.19727 0.23722,0.1253 0.42608,0.3046 0.56446,0.53516 0.10545,0.17131 0.17726,0.43639 0.21679,0.79882 0.0461,0.36244 0.0703,1.02305 0.0703,1.97852 v 4.0625 1.0957 h 3.55859 v -6.74023 c 0,-1.49584 -0.33446,-2.63577 -1,-3.41992 -0.65895,-0.78415 -1.62593,-1.17578 -2.9043,-1.17578 z m 32.44922,0 c -1.8265,0.0313 -3.2704,0.54855 -4.33008,1.55078 -1.08727,1.03455 -1.63086,2.45423 -1.63086,4.25976 0,1.83846 0.55507,3.26964 1.66211,4.29102 1.11363,1.01478 2.67062,1.52148 4.67383,1.52148 0.83687,0 1.67485,-0.0813 2.51172,-0.24609 0.83687,-0.15814 1.6729,-0.3966 2.50977,-0.71289 v -2.72852 c -0.82369,0.44813 -1.62796,0.78577 -2.41211,1.00977 -0.77757,0.21745 -1.53859,0.32617 -2.28321,0.32617 -0.92253,0 -1.64031,-0.20793 -2.15429,-0.62305 -0.51398,-0.41514 -0.81277,-1.03885 -0.89844,-1.86914 h 8.27148 v -1.00781 c 0,-1.75282 -0.52258,-3.15344 -1.57031,-4.20117 -1.04114,-1.04774 -2.43224,-1.57031 -4.17187,-1.57031 -0.0597,0 -0.11882,-10e-4 -0.17774,0 z m 15.82422,0 c -0.82369,0 -1.53194,0.16783 -2.125,0.5039 -0.58647,0.32948 -1.10587,0.85524 -1.56055,1.58008 v -1.81836 h -3.53906 v 11.07031 h 3.53906 v -5.09961 c 0,-1.08727 0.24285,-1.92207 0.73047,-2.50195 0.49422,-0.58646 1.19612,-0.87891 2.10547,-0.87891 0.30971,0 0.61681,0.0368 0.91992,0.10938 0.30971,0.066 0.61803,0.17152 0.92774,0.3164 L 284.95703,392 c -0.26358,-0.032 -0.46318,-0.053 -0.60156,-0.0605 -0.13839,-0.0126 -0.26812,-0.0176 -0.38672,-0.0176 z m 36.13672,0 c -0.76439,-10e-6 -1.52859,0.0497 -2.29297,0.14843 -0.76438,0.0923 -1.52541,0.22962 -2.2832,0.41407 v 2.69921 c 0.56011,-0.30324 1.16599,-0.5302 1.81836,-0.68164 0.65236,-0.15168 1.35744,-0.22851 2.11523,-0.22851 0.93571,0 1.62491,0.1329 2.06641,0.39648 0.44149,0.25701 0.66211,0.66451 0.66211,1.22461 v 0.27735 h -2.08594 c -1.91096,0 -3.31281,0.30196 -4.20899,0.9082 -0.88958,0.60623 -1.33593,1.55928 -1.33593,2.85742 0,1.06751 0.35669,1.93725 1.06836,2.60938 0.71825,0.66552 1.6503,0.99804 2.79687,0.99804 0.85005,0 1.57101,-0.15198 2.16406,-0.45508 0.59306,-0.30972 1.12712,-0.80053 1.60157,-1.47265 v 1.64062 h 3.56836 v -6.31445 c 0,0 0,-0.002 0,-0.002 -3.3e-4,-1.77156 -0.44473,-3.05013 -1.33399,-3.83399 -0.88299,-0.79075 -2.32369,-1.18554 -4.32031,-1.18554 z m -77.22461,0.26562 v 11.07031 h 3.53906 V 392.1875 Z m 5.54492,0 4.34961,11.07031 h 3.88281 l 4.35938,-11.07031 h -3.54883 l -2.74609,7.65039 -2.75782,-7.65039 z m 50.34961,0 v 11.07031 h 3.53906 V 392.1875 Z m -30.47266,2.08594 c 0.6326,0 1.14247,0.2079 1.53125,0.62304 0.39538,0.40857 0.59375,0.94897 0.59375,1.6211 h -4.5957 c 0.10543,-0.72486 0.37246,-1.27797 0.80078,-1.66016 0.42832,-0.38879 0.98461,-0.58398 1.66992,-0.58398 z m 51.91407,4.0039 c 0.0447,-9.7e-4 0.0906,0 0.13672,0 h 1.83789 v 0.4043 c 0,0.71826 -0.22697,1.3178 -0.68164,1.79883 -0.45468,0.47443 -1.01415,0.71289 -1.67969,0.71289 -0.53375,0 -0.95274,-0.1265 -1.25586,-0.37695 -0.29653,-0.25701 -0.44531,-0.60857 -0.44531,-1.05664 0,-0.48759 0.18567,-0.85697 0.55468,-1.10743 0.35213,-0.2348 0.86254,-0.36032 1.53321,-0.375 z m -35.78711,9.32032 v 6.3789 c 0,1.50617 0.37735,2.62681 1.13281,3.36328 0.75546,0.73646 1.90503,1.10547 3.44922,1.10547 1.54894,0 2.70157,-0.36901 3.45703,-1.10547 0.75546,-0.73647 1.13281,-1.85711 1.13281,-3.36328 v -6.3789 h -2.74414 v 6.3789 c 0,0.87899 -0.14571,1.50855 -0.43554,1.88867 -0.28509,0.37536 -0.75448,0.5625 -1.41016,0.5625 -0.65094,0 -1.12228,-0.18714 -1.41211,-0.5625 -0.28508,-0.38012 -0.42578,-1.00968 -0.42578,-1.88867 v -6.3789 z m 11.33203,0 v 2.07422 h 5.54492 l -5.70898,6.90624 v 1.66016 h 9.27148 v -2.07422 h -5.87305 l 5.70899,-6.90625 v -1.66015 z m 11.10351,0 v 10.64062 h 2.74415 v -4.51172 h 4.04687 v 4.51172 h 2.74414 V 407.5977 h -2.74414 v 4.05664 h -4.04687 v -4.05664 z m -77.8125,1.25 v 2.43164 h 2.32227 v -2.43164 z m 3.9043,0 v 2.43164 h 2.32227 v -2.43164 z m 18.14649,0.28515 v 2.88672 h 3.53906 v -2.88672 z m 18.93945,0 v 15.38086 h 3.53711 v -5.44726 c 0,-1.00821 0.21108,-1.79463 0.63281,-2.36133 0.42173,-0.57328 1.00221,-0.85938 1.74023,-0.85938 0.30312,0 0.57332,0.0655 0.81055,0.19727 0.23722,0.12528 0.42412,0.30265 0.5625,0.5332 0.10545,0.17134 0.17922,0.43835 0.21875,0.80078 0.0461,0.36241 0.0684,1.02743 0.0684,1.9961 v 4.04297 1.09765 h 3.5586 v -6.74219 c -10e-6,-1.49581 -0.33251,-2.63577 -0.99805,-3.41992 -0.65895,-0.78415 -1.62789,-1.17578 -2.90625,-1.17578 -0.72485,0 -1.38669,0.15513 -1.98633,0.46484 -0.59965,0.3031 -1.16742,0.77804 -1.70117,1.42383 v -5.93164 z m -58.57422,0.62305 v 2.87695 h 7.68945 l -7.91797,9.57813 v 2.30273 h 12.85938 v -2.87695 h -8.14453 l 7.91797,-9.57813 v -2.30273 z m 36.87695,3.41992 c -0.82369,0 -1.53194,0.16783 -2.125,0.50391 -0.58646,0.32947 -1.10587,0.85719 -1.56054,1.58203 v -1.81836 h -3.53907 v 11.07031 h 3.53907 v -5.10156 c 0,-1.08727 0.24284,-1.92012 0.73046,-2.5 0.49422,-0.58646 1.19612,-0.87891 2.10547,-0.87891 0.30971,0 0.61681,0.0349 0.91993,0.10742 0.3097,0.066 0.61998,0.17153 0.92968,0.31641 l -0.0117,-3.20312 c -0.26358,-0.032 -0.46318,-0.051 -0.60156,-0.0586 -0.13839,-0.0126 -0.26812,-0.0195 -0.38672,-0.0195 z m 15.24219,0 c -1.99662,0 -3.55874,0.51501 -4.68555,1.54297 -1.1268,1.02138 -1.68945,2.44422 -1.68945,4.26953 0,1.82529 0.56265,3.25134 1.68945,4.2793 1.12681,1.02138 2.68893,1.5332 4.68555,1.5332 0.57329,0 1.14424,-0.0529 1.71094,-0.1582 0.57329,-0.0988 1.13593,-0.25073 1.68945,-0.45508 v -2.89648 c -0.42173,0.32284 -0.88396,0.56763 -1.38476,0.73242 -0.49422,0.16478 -1.0168,0.24609 -1.57032,0.24609 -0.98842,0 -1.75898,-0.28607 -2.3125,-0.85937 -0.54693,-0.57988 -0.82031,-1.38735 -0.82031,-2.42188 0,-1.03456 0.27338,-1.8388 0.82031,-2.41211 0.55352,-0.57988 1.32408,-0.86914 2.3125,-0.86914 0.52058,0 1.02092,0.0781 1.50196,0.23633 0.48762,0.15816 0.97209,0.40295 1.45312,0.73242 v -2.88672 c -0.56011,-0.20434 -1.12275,-0.3563 -1.68945,-0.45508 -0.56011,-0.10532 -1.13106,-0.1582 -1.71094,-0.1582 z m -36.99609,0.26758 v 6.75976 c 0,1.49582 0.3325,2.63578 0.99804,3.41993 0.67213,0.78415 1.64742,1.17773 2.92578,1.17773 0.71826,0 1.37375,-0.15196 1.9668,-0.45508 0.59965,-0.30969 1.16547,-0.78782 1.69922,-1.43359 v 1.60156 h 3.53906 V 413.4434 h -3.53906 v 5.46484 c 0,1.0082 -0.21108,1.79658 -0.63281,2.36328 -0.42173,0.56671 -1.00026,0.84961 -1.73828,0.84961 -0.30312,0 -0.57332,-0.0623 -0.81055,-0.1875 -0.23062,-0.12527 -0.41947,-0.30265 -0.56445,-0.5332 -0.112,-0.17791 -0.1902,-0.46082 -0.23633,-0.84961 -0.0461,-0.39536 -0.0703,-1.03813 -0.0703,-1.92773 0,-0.30312 0.005,-0.90584 0.0117,-1.8086 0.007,-0.90935 0.01,-1.66401 0.01,-2.26367 v -1.10742 z m 24.51172,0 v 11.07031 h 3.53906 V 413.4434 Z m 155.51171,13.39258 c 0.0561,-0.0532 1.31295,0.15523 2.79297,0.46289 1.82457,0.37954 4.33201,0.60769 7.78907,0.70898 4.84973,0.14215 7.24758,-0.0392 12.39257,-0.93359 l 1.0625,-0.1836 v 2.8379 c 0,2.37188 0.0888,2.94705 0.54102,3.50586 l 0.54102,0.66992 8.94921,0.082 8.94727,0.082 v 28.03125 28.0332 h -2.54883 -2.54883 l -0.004,-14.37695 c -0.0113,-7.90662 1.2e-4,-19.38125 0.004,-25.5 l 0.0156,-11.125 -0.70703,-0.70703 -0.70508,-0.70508 -24.81836,0.0762 c -24.19355,0.0735 -24.82689,0.0891 -25.21875,0.625 -0.33974,0.46526 -0.40234,4.48626 -0.40234,26.13086 l -0.002,25.58008 h -2.6914 -2.69141 v -28.03125 -28.03125 l 9.08984,-0.082 9.08985,-0.082 0.54883,-0.67969 c 0.46975,-0.57846 0.54573,-1.09171 0.51171,-3.48438 -0.0215,-1.54393 0.004,-2.85138 0.0625,-2.90429 z m -183.30273,98.8789 c -0.63369,0 -1.15442,0.20518 -1.56445,0.61524 -0.41004,0.41003 -0.61524,0.93078 -0.61524,1.56445 v 39.30859 c 0,0.63371 0.2052,1.15443 0.61524,1.56446 0.41003,0.41003 0.93076,0.61523 1.56445,0.61523 0.63369,0 1.15638,-0.2052 1.56641,-0.61523 0.41003,-0.41003 0.61523,-0.93075 0.61523,-1.56446 v -14.92968 h 8.27539 0.94922 l 10.06445,15.99218 c 0.22366,0.37267 0.485,0.65144 0.78321,0.8379 0.2982,0.18645 0.67183,0.27929 1.11914,0.27929 0.67096,0 1.21106,-0.16648 1.62109,-0.50195 0.41003,-0.3355 0.61524,-0.78268 0.61524,-1.3418 -10e-6,-0.44732 -0.16843,-0.95062 -0.50391,-1.50976 l -9.16992,-14.65039 c 2.64657,-0.93191 4.73536,-2.47864 6.26367,-4.64063 1.56558,-2.16199 2.34766,-4.6786 2.34766,-7.54883 -10e-6,-2.60931 -0.61561,-4.93814 -1.84571,-6.98828 -1.19282,-2.05017 -2.85185,-3.63562 -4.97656,-4.7539 -2.12472,-1.15556 -4.54645,-1.73243 -7.26758,-1.73243 z m 71.84961,0 c -0.63369,0 -1.15638,0.20518 -1.56641,0.61524 -0.37275,0.41003 -0.55859,0.93078 -0.55859,1.56445 v 12.52539 c -0.0373,0.11175 -0.0547,0.28016 -0.0547,0.50391 v 13.13867 c 0,2.90751 0.66979,5.55382 2.01172,7.93945 1.3792,2.38564 3.24343,4.26924 5.5918,5.64844 2.38564,1.34193 5.03195,2.01172 7.93945,2.01172 2.90751,0 5.5364,-0.66979 7.88477,-2.01172 2.38564,-1.3792 4.24791,-3.2628 5.58984,-5.64844 1.3792,-2.38563 2.07031,-5.03194 2.07031,-7.93945 0,-2.90751 -0.67174,-5.53447 -2.01367,-7.88281 -1.30465,-2.38567 -3.11273,-4.24989 -5.42383,-5.5918 -2.27381,-1.37922 -4.8272,-2.06836 -7.66015,-2.06836 -2.42293,0 -4.64141,0.52073 -6.6543,1.56445 -2.01289,1.00644 -3.67191,2.40411 -4.97656,4.19336 v -16.38281 c 0,-0.63367 -0.20325,-1.15442 -0.61328,-1.56445 -0.41004,-0.41006 -0.93272,-0.61524 -1.56641,-0.61524 z m 147.38867,0 c -0.59643,0 -1.09974,0.20518 -1.50976,0.61524 -0.41003,0.37274 -0.61524,0.87606 -0.61524,1.50976 v 31.8711 c 0,2.83293 0.70851,5.16176 2.125,6.98828 1.45373,1.78923 3.31601,2.68359 5.58984,2.68359 h 0.72852 c 0.7455,0 1.34174,-0.18583 1.78906,-0.55859 0.48459,-0.41003 0.72657,-0.93273 0.72657,-1.56641 0,-0.6337 -0.16841,-1.13703 -0.50391,-1.50976 -0.33547,-0.41006 -0.78265,-0.61328 -1.3418,-0.61328 h -1.39844 c -1.00646,0 -1.84465,-0.50333 -2.51562,-1.50977 -0.63368,-1.00644 -0.95117,-2.31122 -0.95117,-3.91406 v -31.8711 c 0,-0.6337 -0.20325,-1.13702 -0.61328,-1.50976 -0.37277,-0.41006 -0.87609,-0.61524 -1.50977,-0.61524 z m 41.03906,0 c -0.63367,0 -1.15442,0.20518 -1.56445,0.61524 -0.41003,0.41003 -0.61523,0.93078 -0.61523,1.56445 v 16.38281 c -1.30467,-1.78925 -2.96369,-3.18692 -4.97657,-4.19336 -2.0129,-1.04372 -4.23139,-1.56445 -6.65429,-1.56445 -2.83296,0 -5.40374,0.68914 -7.71485,2.06836 -2.27381,1.34191 -4.08189,3.20613 -5.42383,5.5918 -1.30464,2.34834 -1.95703,4.9753 -1.95703,7.88281 0,2.90751 0.66979,5.55382 2.01172,7.93945 1.3792,2.38564 3.24343,4.26924 5.5918,5.64844 2.38564,1.34193 5.03194,2.01172 7.93945,2.01172 2.90749,0 5.5364,-0.66979 7.88477,-2.01172 2.38566,-1.3792 4.24989,-3.2628 5.59179,-5.64844 1.37921,-2.38563 2.06836,-5.03194 2.06836,-7.93945 v -13.13867 c 0,-0.22362 -0.0193,-0.39203 -0.0566,-0.50391 v -12.52539 c 0,-0.63367 -0.2052,-1.15442 -0.61523,-1.56445 -0.37276,-0.41006 -0.87607,-0.61524 -1.50977,-0.61524 z m -258.0957,4.19336 h 8.27539 c 1.90106,0 3.59686,0.39104 5.08789,1.17383 1.49103,0.78279 2.64673,1.88236 3.4668,3.29883 0.85734,1.41649 1.28516,3.01936 1.28516,4.80859 0,1.7147 -0.42782,3.24403 -1.28516,4.58594 -0.82007,1.34193 -1.99513,2.40471 -3.52344,3.1875 -1.49103,0.7455 -3.16746,1.11719 -5.03125,1.11719 h -8.27539 z m 43.55664,8.61133 c -2.94478,0 -5.61045,0.66979 -7.99609,2.01172 -2.34837,1.34193 -4.19323,3.20616 -5.53516,5.5918 -1.34192,2.38563 -2.01367,5.05128 -2.01367,7.99609 0,2.94478 0.67175,5.61046 2.01367,7.99609 1.34193,2.34838 3.18679,4.19325 5.53516,5.53516 2.38564,1.34193 5.05131,2.01172 7.99609,2.01172 2.94478,0 5.59108,-0.66979 7.93945,-2.01172 2.38565,-1.34191 4.24987,-3.18678 5.5918,-5.53516 1.34193,-2.38563 2.01172,-5.05131 2.01172,-7.99609 0,-2.94481 -0.68916,-5.61046 -2.06836,-7.99609 -1.34193,-2.38564 -3.18679,-4.24987 -5.53516,-5.5918 -2.34837,-1.34193 -4.99467,-2.01172 -7.93945,-2.01172 z m 77.38477,0 c -2.94478,0 -5.61045,0.66979 -7.9961,2.01172 -2.34837,1.34193 -4.19323,3.20616 -5.53515,5.5918 -1.34193,2.38563 -2.01368,5.05128 -2.01368,7.99609 0,2.94478 0.67175,5.61046 2.01368,7.99609 1.34192,2.34838 3.18678,4.19325 5.53515,5.53516 2.38565,1.34193 5.05132,2.01172 7.9961,2.01172 2.94478,0 5.59108,-0.66979 7.93945,-2.01172 2.38565,-1.34191 4.24987,-3.18678 5.5918,-5.53516 1.34192,-2.38563 2.01172,-5.05131 2.01172,-7.99609 0,-2.94481 -0.68916,-5.61046 -2.06836,-7.99609 -1.34193,-2.38564 -3.18679,-4.24987 -5.53516,-5.5918 -2.34837,-1.34193 -4.99467,-2.01172 -7.93945,-2.01172 z m 37.01367,0 c -2.79567,0 -5.31228,0.66979 -7.54883,2.01172 -2.23654,1.34193 -3.98848,3.20616 -5.25586,5.5918 -1.26737,2.34837 -1.90039,5.01402 -1.90039,7.99609 0,2.90749 0.65238,5.55382 1.95703,7.93945 1.34193,2.34838 3.16938,4.2126 5.48047,5.5918 2.31111,1.34193 4.91868,2.01172 7.82617,2.01172 4.10034,0 7.49389,-1.24863 10.17774,-3.74609 0.37276,-0.3355 0.55859,-0.74393 0.55859,-1.22852 0,-0.55912 -0.26135,-1.06245 -0.7832,-1.50977 -0.37276,-0.2982 -0.78318,-0.44726 -1.23047,-0.44726 -0.52188,0 -1.02518,0.2052 -1.50977,0.61523 -1.82649,1.60288 -4.23082,2.4043 -7.21289,2.4043 -2.16199,0 -4.08041,-0.5033 -5.75781,-1.50977 -1.6774,-1.00643 -2.98217,-2.38671 -3.91406,-4.13867 -0.9319,-1.78923 -1.39844,-3.78316 -1.39844,-5.98242 0,-2.23655 0.42977,-4.24981 1.28711,-6.03906 0.89462,-1.78923 2.14324,-3.16755 3.74609,-4.13672 1.60288,-1.00644 3.42838,-1.50977 5.47852,-1.50977 1.64014,0 3.13072,0.31552 4.47266,0.94922 1.34193,0.59641 2.57314,1.51015 3.6914,2.74024 0.52185,0.55914 1.06195,0.83984 1.6211,0.83984 0.37276,0 0.72702,-0.11219 1.0625,-0.33594 0.6337,-0.44732 0.95117,-0.96999 0.95117,-1.5664 0,-0.44732 -0.14906,-0.83836 -0.44727,-1.17383 -2.90751,-3.57848 -6.69208,-5.36719 -11.35156,-5.36719 z m 34.16406,0 c -2.94478,0 -5.61043,0.66979 -7.99609,2.01172 -2.34837,1.34193 -4.19325,3.20616 -5.53516,5.5918 -1.34193,2.38563 -2.01367,5.05128 -2.01367,7.99609 0,2.94478 0.67174,5.61046 2.01367,7.99609 1.34191,2.34838 3.18679,4.19325 5.53516,5.53516 2.38566,1.34193 5.05131,2.01172 7.99609,2.01172 2.94478,0 5.59108,-0.66979 7.93945,-2.01172 2.38564,-1.34191 4.24987,-3.18678 5.5918,-5.53516 1.34191,-2.38563 2.01172,-5.05131 2.01172,-7.99609 0,-2.94481 -0.68916,-5.61046 -2.06836,-7.99609 -1.34191,-2.38564 -3.18678,-4.24987 -5.53516,-5.5918 -2.34837,-1.34193 -4.99467,-2.01172 -7.93945,-2.01172 z m -148.5625,3.91406 c 2.16199,0 4.09977,0.50333 5.81445,1.50977 1.71469,1.00646 3.05623,2.40413 4.02539,4.19336 0.96917,1.75196 1.45508,3.74587 1.45508,5.98242 0,2.19926 -0.48591,4.19319 -1.45508,5.98242 -0.96916,1.75196 -2.3107,3.13028 -4.02539,4.13672 -1.71468,1.00646 -3.65246,1.50977 -5.81445,1.50977 -2.12472,0 -4.06249,-0.50331 -5.81445,-1.50977 -1.71469,-1.00644 -3.07559,-2.38476 -4.08203,-4.13672 -0.96917,-1.78923 -1.45508,-3.78316 -1.45508,-5.98242 0,-2.23655 0.48591,-4.23046 1.45508,-5.98242 1.00644,-1.78923 2.36734,-3.1869 4.08203,-4.19336 1.75196,-1.00644 3.68973,-1.50977 5.81445,-1.50977 z m 39.47461,0 c 2.12472,0 4.04508,0.50333 5.75977,1.50977 1.75195,1.00646 3.11286,2.40413 4.08203,4.19336 1.00644,1.75196 1.50781,3.72652 1.50781,5.92578 0,2.19928 -0.50137,4.19319 -1.50781,5.98242 -0.96917,1.75196 -2.33008,3.14966 -4.08203,4.19336 -1.71469,1.00646 -3.63505,1.50977 -5.75977,1.50977 -2.12471,0 -4.04508,-0.50135 -5.75977,-1.50782 -1.71468,-1.0437 -3.07363,-2.44335 -4.08007,-4.19531 -0.96917,-1.78923 -1.45508,-3.78314 -1.45508,-5.98242 0,-0.63368 0.0194,-1.09828 0.0566,-1.39648 0.0373,-0.0746 0.0547,-0.16938 0.0547,-0.28125 0.37275,-2.90752 1.5846,-5.29247 3.63476,-7.15625 2.08744,-1.86379 4.60405,-2.79493 7.54883,-2.79493 z m 37.91016,0 c 2.16199,0 4.09977,0.50333 5.81445,1.50977 1.71468,1.00646 3.05622,2.40413 4.02539,4.19336 0.96917,1.75196 1.45313,3.74587 1.45313,5.98242 0,2.19926 -0.48396,4.19319 -1.45313,5.98242 -0.96917,1.75196 -2.31071,3.13028 -4.02539,4.13672 -1.71468,1.00646 -3.65246,1.50977 -5.81445,1.50977 -2.12472,0 -4.06445,-0.50331 -5.81641,-1.50977 -1.71468,-1.00644 -3.07559,-2.38476 -4.08203,-4.13672 -0.96917,-1.78923 -1.45313,-3.78316 -1.45313,-5.98242 0,-2.23655 0.48396,-4.23046 1.45313,-5.98242 1.00644,-1.78923 2.36735,-3.1869 4.08203,-4.19336 1.75196,-1.00644 3.69169,-1.50977 5.81641,-1.50977 z m 71.17773,0 c 2.16199,0 4.09978,0.50333 5.81445,1.50977 1.7147,1.00646 3.05622,2.40413 4.02539,4.19336 0.96915,1.75196 1.45313,3.74587 1.45313,5.98242 0,2.19926 -0.48398,4.19319 -1.45313,5.98242 -0.96917,1.75196 -2.31069,3.13028 -4.02539,4.13672 -1.71467,1.00646 -3.65246,1.50977 -5.81445,1.50977 -2.12472,0 -4.06444,-0.50331 -5.8164,-1.50977 -1.71468,-1.00644 -3.07362,-2.38476 -4.08008,-4.13672 -0.96917,-1.78923 -1.45508,-3.78316 -1.45508,-5.98242 0,-2.23655 0.48591,-4.23046 1.45508,-5.98242 1.00646,-1.78923 2.3654,-3.1869 4.08008,-4.19336 1.75196,-1.00644 3.69168,-1.50977 5.8164,-1.50977 z m 52.61328,0 c 2.94478,0 5.44202,0.93114 7.49219,2.79493 2.08743,1.86378 3.31864,4.24873 3.69141,7.15625 0,0.11187 0.0174,0.20666 0.0547,0.28125 0.0373,0.2982 0.0566,0.7628 0.0566,1.39648 0,2.19928 -0.50332,4.19319 -1.50976,5.98242 -0.96917,1.75196 -2.31072,3.14966 -4.02539,4.19336 -1.7147,1.00646 -3.63507,1.50977 -5.75977,1.50977 -2.12472,0 -4.06249,-0.50331 -5.81445,-1.50977 -1.71467,-1.0437 -3.07557,-2.4414 -4.08203,-4.19336 -0.96917,-1.78923 -1.45313,-3.78314 -1.45313,-5.98242 0,-2.19926 0.48396,-4.17382 1.45313,-5.92578 1.00646,-1.78923 2.36736,-3.1869 4.08203,-4.19336 1.75196,-1.00644 3.68973,-1.50977 5.81445,-1.50977 z m -25.04101,35.05664 c -0.29846,0 -0.55076,0.1035 -0.75586,0.3086 -0.2051,0.18651 -0.30664,0.43685 -0.30664,0.7539 V 594.5 c 0,1.41742 0.35379,2.5822 1.0625,3.49609 0.72735,0.89522 1.65918,1.34375 2.79687,1.34375 h 0.36524 c 0.37306,0 0.67078,-0.0928 0.89453,-0.27929 0.24239,-0.20516 0.36328,-0.46613 0.36328,-0.78321 0,-0.3171 -0.0841,-0.5694 -0.25195,-0.75586 -0.16787,-0.2051 -0.39212,-0.30859 -0.67188,-0.30859 h -0.69922 c -0.50356,0 -0.92209,-0.25035 -1.25781,-0.75391 -0.31705,-0.50355 -0.47656,-1.15701 -0.47656,-1.95898 v -15.94727 c 0,-0.3171 -0.10154,-0.56745 -0.30664,-0.7539 -0.18651,-0.2051 -0.43881,-0.3086 -0.75586,-0.3086 z m 7.88867,0 c -0.29846,0 -0.55076,0.1035 -0.75586,0.3086 -0.2051,0.18651 -0.30664,0.43685 -0.30664,0.7539 V 594.5 c 0,1.41742 0.35376,2.5822 1.0625,3.49609 0.72736,0.89522 1.66116,1.34375 2.79883,1.34375 h 0.36328 c 0.37306,0 0.67078,-0.0928 0.89453,-0.27929 0.24239,-0.20516 0.36328,-0.46613 0.36328,-0.78321 0,-0.3171 -0.0841,-0.5694 -0.25195,-0.75586 -0.16786,-0.2051 -0.39016,-0.30859 -0.66992,-0.30859 h -0.70118 c -0.50356,0 -0.92211,-0.25035 -1.25781,-0.75391 -0.31705,-0.50355 -0.47656,-1.15701 -0.47656,-1.95898 v -15.94727 c 0,-0.3171 -0.10154,-0.56745 -0.30664,-0.7539 -0.18651,-0.2051 -0.43881,-0.3086 -0.75586,-0.3086 z m -48.0332,1.67969 c -0.31711,0 -0.57811,0.10154 -0.78321,0.30664 -0.18645,0.20516 -0.27929,0.46615 -0.27929,0.78321 v 4.33593 h -1.81836 c -0.29846,0 -0.54206,0.0948 -0.72852,0.28125 -0.16781,0.16786 -0.25195,0.39016 -0.25195,0.66993 0,0.26114 0.0841,0.48541 0.25195,0.67187 0.18651,0.16781 0.43011,0.25195 0.72852,0.25195 h 1.81836 v 7.46875 c 0,1.02579 0.21362,1.94892 0.64257,2.76953 0.44763,0.80197 1.06241,1.44673 1.84571,1.93164 0.78332,0.46627 1.66973,0.69922 2.6582,0.69922 h 0.58789 c 0.33577,0 0.6161,-0.10349 0.83984,-0.30859 0.22375,-0.20518 0.33399,-0.4555 0.33399,-0.75391 0,-0.3171 -0.0928,-0.58005 -0.2793,-0.78515 -0.18651,-0.2051 -0.42815,-0.30664 -0.72656,-0.30664 H 409.125 c -0.87657,0 -1.5948,-0.29772 -2.1543,-0.89453 -0.55952,-0.61546 -0.83984,-1.40039 -0.83984,-2.35157 v -7.46875 h 3.16211 c 0.29846,0 0.53141,-0.0841 0.69922,-0.25195 0.18645,-0.18648 0.27929,-0.41076 0.27929,-0.67187 0,-0.27982 -0.0928,-0.50212 -0.27929,-0.66993 -0.16786,-0.18645 -0.40081,-0.28125 -0.69922,-0.28125 h -3.16211 v -4.33593 c 0,-0.31711 -0.10154,-0.57811 -0.30664,-0.78321 -0.20515,-0.2051 -0.46615,-0.30664 -0.7832,-0.30664 z m -13.59571,4.69922 c -1.02576,0 -1.97694,0.19623 -2.85351,0.58789 -0.87658,0.39166 -1.62283,0.93298 -2.23828,1.62305 v -0.95117 c 0,-0.31711 -0.1035,-0.58006 -0.3086,-0.78516 -0.18651,-0.2051 -0.43685,-0.30664 -0.7539,-0.30664 -0.31713,0 -0.57811,0.10154 -0.78321,0.30664 -0.2051,0.20515 -0.30859,0.4681 -0.30859,0.78516 v 13.14843 c 0,0.31713 0.10349,0.5781 0.30859,0.78321 0.20516,0.18645 0.46613,0.27929 0.78321,0.27929 0.3171,0 0.56745,-0.0928 0.7539,-0.27929 0.2051,-0.20516 0.3086,-0.46613 0.3086,-0.78321 v -8.28125 c 0,-0.76467 0.21362,-1.45485 0.64257,-2.07031 0.42895,-0.6341 1.007,-1.12805 1.73438,-1.48242 0.746,-0.35437 1.57637,-0.53125 2.49023,-0.53125 1.49203,0 2.69549,0.43788 3.60938,1.31445 0.93251,0.85793 1.39844,2.1155 1.39844,3.77539 v 7.27539 c 0,0.29849 0.10349,0.54881 0.30859,0.75391 0.20515,0.2051 0.46615,0.30859 0.7832,0.30859 0.29846,0 0.54881,-0.10349 0.75391,-0.30859 0.2051,-0.20518 0.30859,-0.4555 0.30859,-0.75391 v -7.27539 c 0,-1.49203 -0.29772,-2.76895 -0.89453,-3.83203 -0.59684,-1.08172 -1.42718,-1.90141 -2.49023,-2.46094 -1.04444,-0.55949 -2.22857,-0.83984 -3.55274,-0.83984 z m 29.84961,0 0.002,0.002 c -0.96983,0 -1.87559,0.21363 -2.71485,0.64258 -0.83928,0.42895 -1.52946,1.03504 -2.07031,1.81836 v -1.23047 c 0,-0.33575 -0.0928,-0.59674 -0.2793,-0.7832 -0.18651,-0.18646 -0.4475,-0.2793 -0.7832,-0.2793 -0.33577,0 -0.59675,0.0928 -0.7832,0.2793 -0.18646,0.18651 -0.2793,0.4475 -0.2793,0.7832 v 13.17578 c 0,0.33578 0.0928,0.59675 0.2793,0.78321 0.1865,0.18645 0.44748,0.28125 0.7832,0.28125 0.33575,0 0.59675,-0.0948 0.7832,-0.28125 0.18646,-0.18651 0.2793,-0.44748 0.2793,-0.78321 v -8.36328 c 0,-1.19362 0.43983,-2.16415 1.3164,-2.91015 0.89522,-0.74603 2.04068,-1.11914 3.43946,-1.11914 0.29843,0 0.52271,0.008 0.67187,0.0254 0.41036,0.0373 0.69938,0.0566 0.86719,0.0566 0.27979,0 0.49537,-0.0455 0.64453,-0.13868 0.16781,-0.0933 0.2887,-0.27208 0.36328,-0.5332 0.0176,-0.0559 0.0254,-0.13812 0.0254,-0.25 0,-0.37306 -0.23295,-0.66404 -0.69922,-0.86914 -0.44759,-0.2051 -1.06238,-0.30664 -1.8457,-0.30664 z m 62.74805,0 0.002,0.002 c -0.96982,0 -1.87363,0.21363 -2.71289,0.64258 -0.83928,0.42895 -1.52946,1.03504 -2.07031,1.81836 v -1.23047 c 0,-0.33575 -0.0928,-0.59674 -0.2793,-0.7832 -0.18651,-0.18646 -0.4475,-0.2793 -0.7832,-0.2793 -0.33575,0 -0.59675,0.0928 -0.7832,0.2793 -0.18646,0.18651 -0.28125,0.4475 -0.28125,0.7832 v 13.17578 c 0,0.33578 0.0948,0.59675 0.28125,0.78321 0.1865,0.18645 0.4475,0.28125 0.7832,0.28125 0.33575,0 0.59675,-0.0948 0.7832,-0.28125 0.18646,-0.18651 0.2793,-0.44748 0.2793,-0.78321 v -8.36328 c 0,-1.19362 0.43788,-2.16415 1.31445,-2.91015 0.89522,-0.74603 2.04263,-1.11914 3.44141,-1.11914 0.29845,0 0.52271,0.008 0.67187,0.0254 0.41033,0.0373 0.69938,0.0566 0.86719,0.0566 0.27981,0 0.49341,-0.0455 0.64258,-0.13868 0.16781,-0.0933 0.2887,-0.27208 0.36328,-0.5332 0.0176,-0.0559 0.0273,-0.13812 0.0273,-0.25 0,-0.37306 -0.23297,-0.66404 -0.69922,-0.86914 -0.44762,-0.2051 -1.06433,-0.30664 -1.84765,-0.30664 z m -128.91016,0.0273 c -1.39878,0 -2.65832,0.3364 -3.77734,1.00782 -1.11903,0.67139 -1.99479,1.60325 -2.62891,2.79687 -0.63411,1.17498 -0.95117,2.50992 -0.95117,4.00195 0,1.45475 0.32575,2.77708 0.97852,3.97071 0.67141,1.17498 1.58586,2.10876 2.74218,2.79883 1.15633,0.67142 2.46129,1.00586 3.91602,1.00586 2.05154,0 3.74897,-0.62346 5.0918,-1.87305 0.1865,-0.16791 0.27929,-0.37284 0.27929,-0.61524 0,-0.27981 -0.12952,-0.53211 -0.39062,-0.75585 -0.18651,-0.14917 -0.39339,-0.22461 -0.61719,-0.22461 -0.26109,0 -0.51144,0.10349 -0.75391,0.30859 -0.91387,0.80196 -2.11734,1.20312 -3.60937,1.20312 -1.08172,0 -2.04159,-0.2523 -2.88086,-0.75586 -0.83927,-0.50355 -1.49272,-1.19373 -1.95898,-2.07031 -0.46626,-0.89522 -0.69922,-1.89181 -0.69922,-2.99219 0,-1.11901 0.21361,-2.12626 0.64257,-3.02148 0.44761,-0.89522 1.07304,-1.5854 1.875,-2.07031 0.80197,-0.50356 1.71642,-0.75586 2.74219,-0.75586 0.82062,0 1.56687,0.15756 2.23828,0.47461 0.67142,0.2984 1.2862,0.75563 1.84571,1.37109 0.2611,0.27976 0.53079,0.41992 0.81054,0.41992 0.1865,0 0.36535,-0.0561 0.53321,-0.16797 0.31705,-0.22379 0.47461,-0.48479 0.47461,-0.7832 0,-0.22385 -0.0754,-0.42008 -0.22461,-0.58789 -1.45473,-1.79044 -3.34644,-2.68555 -5.67774,-2.68555 z m 17.0918,0 c -1.47338,0 -2.80638,0.3364 -4,1.00782 -1.17498,0.67139 -2.09812,1.60325 -2.76953,2.79687 -0.67141,1.19363 -1.00781,2.52857 -1.00781,4.00195 0,1.47339 0.3364,2.80638 1.00781,4 0.67141,1.17498 1.59455,2.09812 2.76953,2.76954 1.19362,0.67142 2.52662,1.00586 4,1.00586 1.47338,0 2.79768,-0.33444 3.97266,-1.00586 1.19363,-0.67142 2.1274,-1.59456 2.79882,-2.76954 0.6714,-1.19362 1.00586,-2.52661 1.00586,-4 0,-1.47338 -0.34509,-2.80832 -1.03515,-4.00195 -0.6714,-1.19362 -1.59455,-2.12548 -2.76953,-2.79687 -1.17498,-0.67142 -2.49928,-1.00782 -3.97266,-1.00782 z m 60.48437,0 c -1.47336,0 -2.8083,0.3364 -4.00195,1.00782 -1.17495,0.67139 -2.09811,1.60325 -2.76953,2.79687 -0.67142,1.19363 -1.00586,2.52857 -1.00586,4.00195 0,1.47339 0.33444,2.80638 1.00586,4 0.67142,1.17498 1.59458,2.09812 2.76953,2.76954 1.19365,0.67142 2.52859,1.00586 4.00195,1.00586 1.47339,0 2.79768,-0.33444 3.97266,-1.00586 1.19363,-0.67142 2.12546,-1.59456 2.79688,-2.76954 0.67142,-1.19362 1.00781,-2.52661 1.00781,-4 0,-1.47338 -0.34509,-2.80832 -1.03516,-4.00195 -0.67142,-1.19362 -1.59455,-2.12548 -2.76953,-2.79687 -1.17498,-0.67142 -2.49927,-1.00782 -3.97266,-1.00782 z m 33.76563,0 c -1.41742,0 -2.68567,0.3364 -3.80469,1.00782 -1.10039,0.65275 -1.96746,1.5759 -2.60156,2.76953 -0.61546,1.17498 -0.92383,2.51862 -0.92383,4.02929 0,1.49204 0.32772,2.83372 0.98047,4.02735 0.67142,1.17498 1.59455,2.09811 2.76953,2.76953 1.17498,0.65277 2.50797,0.97852 4,0.97852 0.87657,0 1.79103,-0.16623 2.74219,-0.50196 0.95118,-0.35434 1.73415,-0.79417 2.34961,-1.3164 0.2051,-0.18656 0.30664,-0.40019 0.30664,-0.64258 0,-0.27981 -0.12089,-0.53211 -0.36328,-0.75586 -0.20521,-0.14917 -0.41013,-0.22266 -0.61524,-0.22266 -0.26116,0 -0.51346,0.0928 -0.75586,0.2793 -0.41033,0.35442 -0.96032,0.65214 -1.65039,0.89453 -0.67139,0.22375 -1.34225,0.33594 -2.01367,0.33594 -1.56664,0 -2.8716,-0.4746 -3.91601,-1.42578 -1.04446,-0.95118 -1.64185,-2.19138 -1.79102,-3.72071 h 11.30273 c 0.29844,0 0.54011,-0.0841 0.72657,-0.25195 0.18645,-0.18651 0.27929,-0.43011 0.27929,-0.72851 0,-1.45472 -0.29771,-2.75099 -0.89453,-3.88868 -0.57816,-1.13766 -1.39788,-2.02212 -2.46094,-2.65625 -1.06308,-0.65275 -2.28588,-0.98047 -3.66601,-0.98047 z m 0,1.93164 c 1.39878,10e-6 2.54619,0.43788 3.44141,1.31446 0.89526,0.87657 1.41724,2.03268 1.5664,3.46875 h -10.23828 c 0.20515,-1.43607 0.77257,-2.59218 1.70508,-3.46875 0.93253,-0.87658 2.10797,-1.31446 3.52539,-1.31446 z m -94.25,0.0273 c 1.08172,0 2.05224,0.2523 2.91016,0.75586 0.85791,0.50356 1.52876,1.20244 2.01367,2.09765 0.48491,0.87658 0.72851,1.87513 0.72851,2.99414 0,1.10038 -0.2436,2.09697 -0.72851,2.99219 -0.48491,0.87658 -1.15576,1.56676 -2.01367,2.07031 -0.85792,0.50356 -1.82844,0.75586 -2.91016,0.75586 -1.06307,0 -2.03164,-0.2523 -2.9082,-0.75586 -0.85792,-0.50355 -1.53941,-1.19373 -2.04297,-2.07031 -0.48491,-0.89522 -0.72656,-1.89181 -0.72656,-2.99219 0,-1.11901 0.24165,-2.11756 0.72656,-2.99414 0.50356,-0.89521 1.18505,-1.59409 2.04297,-2.09765 0.87656,-0.50356 1.84513,-0.75586 2.9082,-0.75586 z m 60.48437,0 c 1.08173,0 2.05028,0.2523 2.90821,0.75586 0.85793,0.50356 1.53073,1.20244 2.01562,2.09765 0.48492,0.87658 0.72656,1.87513 0.72657,2.99414 -10e-6,1.10038 -0.24165,2.09697 -0.72657,2.99219 -0.48489,0.87658 -1.15769,1.56676 -2.01562,2.07031 -0.85793,0.50356 -1.82648,0.75586 -2.90821,0.75586 -1.06305,0 -2.03358,-0.2523 -2.91015,-0.75586 -0.85793,-0.50355 -1.53746,-1.19373 -2.04102,-2.07031 -0.48491,-0.89522 -0.72851,-1.89181 -0.72851,-2.99219 0,-1.11901 0.2436,-2.11756 0.72851,-2.99414 0.50356,-0.89521 1.18309,-1.59409 2.04102,-2.09765 0.87657,-0.50356 1.8471,-0.75586 2.91015,-0.75586 z"
       transform="scale(0.26458333)" />
  </g>
</svg>
