<?xml version="1.0" encoding="UTF-8" standalone="no"?>
<svg
   sodipodi:docname="robocold_controller.svg"
   inkscape:version="1.1.1 (1:1.1+202109281949+c3084ef5ed)"
   id="svg8"
   version="1.1"
   viewBox="0 0 70.235505 19.516638"
   height="19.516638mm"
   width="70.235504mm"
   xmlns:inkscape="http://www.inkscape.org/namespaces/inkscape"
   xmlns:sodipodi="http://sodipodi.sourceforge.net/DTD/sodipodi-0.dtd"
   xmlns:xlink="http://www.w3.org/1999/xlink"
   xmlns="http://www.w3.org/2000/svg"
   xmlns:svg="http://www.w3.org/2000/svg"
   xmlns:rdf="http://www.w3.org/1999/02/22-rdf-syntax-ns#"
   xmlns:cc="http://creativecommons.org/ns#"
   xmlns:dc="http://purl.org/dc/elements/1.1/">
  <defs
     id="defs2">
    <linearGradient
       gradientUnits="userSpaceOnUse"
       id="defitem29"
       y2="485.909"
       x2="655.35199"
       y1="807.466"
       x1="649.42902">
      <stop
         id="stop92"
         offset="0.0000000"
         style="stop-color:#ffffff;stop-opacity:1.0000000;" />
      <stop
         id="stop93"
         offset="1.0000000"
         style="stop-color:#ffffff;stop-opacity:0.13756600;" />
    </linearGradient>
    <linearGradient
       xlink:href="#defitem29"
       id="linearGradient3448"
       gradientUnits="userSpaceOnUse"
       x1="649.42902"
       y1="807.466"
       x2="655.35199"
       y2="485.909" />
    <radialGradient
       gradientUnits="userSpaceOnUse"
       id="defitem28"
       fy="345.56"
       fx="1049.72"
       r="1202.15"
       cy="345.56"
       cx="1049.72">
      <stop
         id="stop89"
         offset="0.0000000"
         style="stop-color:#ffffff;stop-opacity:1.0000000;" />
      <stop
         id="stop90"
         offset="1.0000000"
         style="stop-color:#a8a8a8;stop-opacity:1.0000000;" />
    </radialGradient>
    <radialGradient
       xlink:href="#defitem28"
       id="radialGradient3446"
       gradientUnits="userSpaceOnUse"
       cx="1092.7045"
       cy="64.845284"
       fx="1089.4004"
       fy="64.844765"
       r="1202.15" />
    <linearGradient
       gradientUnits="userSpaceOnUse"
       id="defitem30"
       y2="636.70697"
       x2="980"
       y1="636.70697"
       x1="287.5">
      <stop
         id="stop95"
         offset="0.0000000"
         style="stop-color:#464646;stop-opacity:1.0000000;" />
      <stop
         id="stop96"
         offset="1.0000000"
         style="stop-color:#c2c2c2;stop-opacity:1.0000000;" />
    </linearGradient>
    <linearGradient
       xlink:href="#defitem30"
       id="linearGradient3444"
       gradientUnits="userSpaceOnUse"
       gradientTransform="matrix(1,0,0,1.016038,0,-11.73855)"
       x1="287.5"
       y1="636.70697"
       x2="980"
       y2="636.70697" />
    <linearGradient
       gradientUnits="userSpaceOnUse"
       id="defitem27"
       y2="317.44699"
       x2="985.98199"
       y1="403.18799"
       x1="921.091">
      <stop
         id="stop86"
         offset="0.0000000"
         style="stop-color:#7e7e7e;stop-opacity:1.0000000;" />
      <stop
         id="stop87"
         offset="1.0000000"
         style="stop-color:#e5e5e5;stop-opacity:1.0000000;" />
    </linearGradient>
    <linearGradient
       xlink:href="#defitem27"
       id="linearGradient3442"
       gradientUnits="userSpaceOnUse"
       x1="921.091"
       y1="403.18799"
       x2="985.98199"
       y2="317.44699" />
    <linearGradient
       gradientUnits="userSpaceOnUse"
       id="defitem26"
       y2="360.27499"
       x2="293.37"
       y1="346.30399"
       x1="530.76099">
      <stop
         id="stop83"
         offset="0.0000000"
         style="stop-color:#5f5f5f;stop-opacity:1.0000000;" />
      <stop
         id="stop84"
         offset="1.0000000"
         style="stop-color:#e5e5e5;stop-opacity:1.0000000;" />
    </linearGradient>
    <linearGradient
       xlink:href="#defitem26"
       id="linearGradient3440"
       gradientUnits="userSpaceOnUse"
       x1="530.76099"
       y1="346.30399"
       x2="293.37"
       y2="360.27499" />
    <linearGradient
       gradientUnits="userSpaceOnUse"
       id="defitem25"
       y2="337.60999"
       x2="308.75"
       y1="412.91901"
       x1="164.013">
      <stop
         id="stop80"
         offset="0.0000000"
         style="stop-color:#ffffff;stop-opacity:1.0000000;" />
      <stop
         id="stop81"
         offset="1.0000000"
         style="stop-color:#bfbfbf;stop-opacity:1.0000000;" />
    </linearGradient>
    <linearGradient
       xlink:href="#defitem25"
       id="linearGradient3438"
       gradientUnits="userSpaceOnUse"
       x1="164.013"
       y1="412.91901"
       x2="308.75"
       y2="337.60999" />
    <linearGradient
       gradientUnits="userSpaceOnUse"
       id="defitem24"
       y2="380.47198"
       x2="992.48901"
       y1="270.854"
       x1="1094.25">
      <stop
         id="stop77"
         offset="0.0000000"
         style="stop-color:#6a6a6a;stop-opacity:1.0000000;" />
      <stop
         id="stop78"
         offset="1.0000000"
         style="stop-color:#e6e6e6;stop-opacity:1.0000000;" />
    </linearGradient>
    <linearGradient
       xlink:href="#defitem24"
       id="linearGradient3436"
       gradientUnits="userSpaceOnUse"
       x1="1094.25"
       y1="270.854"
       x2="992.48901"
       y2="380.47198" />
    <linearGradient
       gradientUnits="userSpaceOnUse"
       id="defitem23"
       y2="549.37799"
       x2="1049.84"
       y1="476.465"
       x1="1170.91">
      <stop
         id="stop74"
         offset="0.0000000"
         style="stop-color:#5f5f5f;stop-opacity:1.0000000;" />
      <stop
         id="stop75"
         offset="1.0000000"
         style="stop-color:#ebebeb;stop-opacity:1.0000000;" />
    </linearGradient>
    <linearGradient
       xlink:href="#defitem23"
       id="linearGradient3434"
       gradientUnits="userSpaceOnUse"
       x1="1170.91"
       y1="476.465"
       x2="1049.84"
       y2="549.37799" />
    <linearGradient
       gradientUnits="userSpaceOnUse"
       id="defitem22"
       y2="313.276"
       x2="576.14899"
       y1="105.486"
       x1="783.716">
      <stop
         id="stop71"
         offset="0.0000000"
         style="stop-color:#5a5a5a;stop-opacity:1.0000000;" />
      <stop
         id="stop72"
         offset="1.0000000"
         style="stop-color:#c7c7c7;stop-opacity:1.0000000;" />
    </linearGradient>
    <linearGradient
       xlink:href="#defitem22"
       id="linearGradient3432"
       gradientUnits="userSpaceOnUse"
       x1="783.716"
       y1="105.486"
       x2="576.14899"
       y2="313.276" />
    <linearGradient
       gradientUnits="userSpaceOnUse"
       id="defitem21"
       y2="484.716"
       x2="128.05499"
       y1="418.698"
       x1="280.04401">
      <stop
         id="stop68"
         offset="0.0000000"
         style="stop-color:#666666;stop-opacity:1.0000000;" />
      <stop
         id="stop69"
         offset="1.0000000"
         style="stop-color:#d8d8d8;stop-opacity:1.0000000;" />
    </linearGradient>
    <linearGradient
       xlink:href="#defitem21"
       id="linearGradient3430"
       gradientUnits="userSpaceOnUse"
       x1="280.04401"
       y1="418.698"
       x2="128.05499"
       y2="484.716" />
    <linearGradient
       gradientUnits="userSpaceOnUse"
       id="defitem20"
       y2="584.40997"
       x2="220"
       y1="636.95398"
       x1="129.687">
      <stop
         id="stop65"
         offset="0.0000000"
         style="stop-color:#ffffff;stop-opacity:1.0000000;" />
      <stop
         id="stop66"
         offset="1.0000000"
         style="stop-color:#bbbbbb;stop-opacity:1.0000000;" />
    </linearGradient>
    <linearGradient
       xlink:href="#defitem20"
       id="linearGradient3428"
       gradientUnits="userSpaceOnUse"
       x1="129.687"
       y1="636.95398"
       x2="220"
       y2="584.40997" />
    <linearGradient
       gradientUnits="userSpaceOnUse"
       id="defitem19"
       y2="583.75299"
       x2="1127.98"
       y1="629.02802"
       x1="1048.72">
      <stop
         id="stop62"
         offset="0.0000000"
         style="stop-color:#5e5e5e;stop-opacity:1.0000000;" />
      <stop
         id="stop63"
         offset="1.0000000"
         style="stop-color:#ededed;stop-opacity:1.0000000;" />
    </linearGradient>
    <linearGradient
       xlink:href="#defitem19"
       id="linearGradient3426"
       gradientUnits="userSpaceOnUse"
       x1="1048.72"
       y1="629.02802"
       x2="1127.98"
       y2="583.75299" />
    <linearGradient
       gradientUnits="userSpaceOnUse"
       id="defitem18"
       y2="291.97699"
       x2="581.32397"
       y1="387.27301"
       x1="370.022">
      <stop
         id="stop59"
         offset="0.0000000"
         style="stop-color:#636363;stop-opacity:1.0000000;" />
      <stop
         id="stop60"
         offset="1.0000000"
         style="stop-color:#d6d6d6;stop-opacity:1.0000000;" />
    </linearGradient>
    <linearGradient
       xlink:href="#defitem18"
       id="linearGradient3424"
       gradientUnits="userSpaceOnUse"
       x1="370.022"
       y1="387.27301"
       x2="581.32397"
       y2="291.97699" />
    <linearGradient
       gradientUnits="userSpaceOnUse"
       id="defitem17"
       y2="351.939"
       x2="909.59399"
       y1="351.939"
       x1="732.15601">
      <stop
         id="stop56"
         offset="0.0000000"
         style="stop-color:#676767;stop-opacity:1.0000000;" />
      <stop
         id="stop57"
         offset="1.0000000"
         style="stop-color:#d3d3d3;stop-opacity:1.0000000;" />
    </linearGradient>
    <linearGradient
       xlink:href="#defitem17"
       id="linearGradient3422"
       gradientUnits="userSpaceOnUse"
       x1="732.15601"
       y1="351.939"
       x2="909.59399"
       y2="351.939" />
    <linearGradient
       gradientUnits="userSpaceOnUse"
       id="defitem16"
       y2="494.71301"
       x2="1073.01"
       y1="494.71301"
       x1="1014.43">
      <stop
         id="stop53"
         offset="0.0000000"
         style="stop-color:#666666;stop-opacity:1.0000000;" />
      <stop
         id="stop54"
         offset="1.0000000"
         style="stop-color:#dcdcdc;stop-opacity:1.0000000;" />
    </linearGradient>
    <linearGradient
       xlink:href="#defitem16"
       id="linearGradient3420"
       gradientUnits="userSpaceOnUse"
       x1="1014.43"
       y1="494.71301"
       x2="1073.01"
       y2="494.71301" />
    <linearGradient
       gradientUnits="userSpaceOnUse"
       id="defitem15"
       y2="516.37"
       x2="193.27699"
       y1="452.388"
       x1="272.59201">
      <stop
         id="stop50"
         offset="0.0000000"
         style="stop-color:#6e6e6e;stop-opacity:1.0000000;" />
      <stop
         id="stop51"
         offset="1.0000000"
         style="stop-color:#d8d8d8;stop-opacity:1.0000000;" />
    </linearGradient>
    <linearGradient
       xlink:href="#defitem15"
       id="linearGradient3418"
       gradientUnits="userSpaceOnUse"
       x1="272.59201"
       y1="452.388"
       x2="193.27699"
       y2="516.37" />
    <radialGradient
       gradientUnits="userSpaceOnUse"
       id="defitem14"
       fy="211.088"
       fx="1037.22"
       r="1164.28"
       cy="211.088"
       cx="1037.22">
      <stop
         id="stop47"
         offset="0.0000000"
         style="stop-color:#ffffff;stop-opacity:1.0000000;" />
      <stop
         id="stop48"
         offset="1.0000000"
         style="stop-color:#aaaaaa;stop-opacity:1.0000000;" />
    </radialGradient>
    <radialGradient
       xlink:href="#defitem14"
       id="radialGradient3416"
       gradientUnits="userSpaceOnUse"
       cx="1037.22"
       cy="211.088"
       fx="1037.22"
       fy="211.088"
       r="1164.28" />
    <linearGradient
       gradientUnits="userSpaceOnUse"
       id="defitem13"
       y2="686.83002"
       x2="379.241"
       y1="732.12903"
       x1="342.64999">
      <stop
         id="stop44"
         offset="0.0000000"
         style="stop-color:#ffffff;stop-opacity:1.0000000;" />
      <stop
         id="stop45"
         offset="1.0000000"
         style="stop-color:#989898;stop-opacity:1.0000000;" />
    </linearGradient>
    <linearGradient
       xlink:href="#defitem13"
       id="linearGradient3414"
       gradientUnits="userSpaceOnUse"
       x1="342.64999"
       y1="732.12903"
       x2="379.241"
       y2="686.83002" />
    <radialGradient
       gradientUnits="userSpaceOnUse"
       id="defitem12"
       fy="484.409"
       fx="632.78101"
       r="540.27899"
       cy="484.409"
       cx="632.78101">
      <stop
         id="stop41"
         offset="0.0000000"
         style="stop-color:#ffffff;stop-opacity:1.0000000;" />
      <stop
         id="stop42"
         offset="1.0000000"
         style="stop-color:#ededed;stop-opacity:1.0000000;" />
    </radialGradient>
    <radialGradient
       xlink:href="#defitem12"
       id="radialGradient3412"
       gradientUnits="userSpaceOnUse"
       cx="632.78101"
       cy="484.409"
       fx="632.78101"
       fy="484.409"
       r="540.27899" />
    <radialGradient
       xlink:href="#linearGradient3682"
       id="radialGradient3817"
       gradientUnits="userSpaceOnUse"
       gradientTransform="matrix(1.1149219,0.2722306,-0.7507171,3.0745639,-471.08629,-148.32863)"
       cx="270.58316"
       cy="33.899986"
       fx="270.58316"
       fy="33.899986"
       r="19.571428" />
    <linearGradient
       id="linearGradient3682">
      <stop
         style="stop-color:#ff6d0f;stop-opacity:1;"
         offset="0"
         id="stop3684" />
      <stop
         style="stop-color:#ff1000;stop-opacity:1;"
         offset="1"
         id="stop3686" />
    </linearGradient>
    <radialGradient
       xlink:href="#linearGradient3864"
       id="radialGradient3661"
       gradientUnits="userSpaceOnUse"
       gradientTransform="matrix(0.6186598,0.9666542,-1.0332462,0.6612786,-327.27568,-255.84136)"
       cx="282.64584"
       cy="29.149046"
       fx="282.64584"
       fy="29.149046"
       r="19.571428" />
    <linearGradient
       id="linearGradient3864">
      <stop
         id="stop3866"
         offset="0"
         style="stop-color:#71b2f8;stop-opacity:1;" />
      <stop
         id="stop3868"
         offset="1"
         style="stop-color:#002795;stop-opacity:1;" />
    </linearGradient>
  </defs>
  <sodipodi:namedview
     inkscape:document-rotation="0"
     inkscape:showpageshadow="false"
     inkscape:snap-tangential="false"
     inkscape:window-maximized="1"
     inkscape:window-y="0"
     inkscape:window-x="0"
     inkscape:window-height="1054"
     inkscape:window-width="1920"
     inkscape:guide-bbox="true"
     showguides="false"
     showgrid="true"
     inkscape:current-layer="layer1"
     inkscape:document-units="mm"
     inkscape:cy="-114.97995"
     inkscape:cx="130.39392"
     inkscape:zoom="2.4004186"
     inkscape:pageshadow="2"
     inkscape:pageopacity="0.0"
     borderopacity="1"
     bordercolor="#001cda"
     pagecolor="#ffffff"
     id="base"
     inkscape:pagecheckerboard="0"
     inkscape:snap-grids="false"
     inkscape:snap-global="false">
    <sodipodi:guide
       inkscape:color="rgb(0,0,255)"
       inkscape:label=""
       inkscape:locked="false"
       id="guide815"
       orientation="1,0"
       position="-48.508054,-138.38798" />
    <sodipodi:guide
       inkscape:color="rgb(0,0,255)"
       inkscape:label=""
       inkscape:locked="false"
       id="guide817"
       orientation="1,0"
       position="141.49195,-138.38798" />
    <inkscape:grid
       enabled="true"
       dotted="false"
       spacingy="1"
       spacingx="1"
       units="mm"
       id="grid857"
       type="xygrid"
       empspacing="1"
       originx="-58.508054"
       originy="-139.09538" />
  </sodipodi:namedview>
  <metadata
     id="metadata5">
    <rdf:RDF>
      <cc:Work
         rdf:about="">
        <dc:format>image/svg+xml</dc:format>
        <dc:type
           rdf:resource="http://purl.org/dc/dcmitype/StillImage" />
        <dc:creator>
          <cc:Agent>
            <dc:title>Matías Senger</dc:title>
          </cc:Agent>
        </dc:creator>
        <cc:license
           rdf:resource="http://creativecommons.org/publicdomain/zero/1.0/" />
      </cc:Work>
      <cc:License
         rdf:about="http://creativecommons.org/publicdomain/zero/1.0/">
        <cc:permits
           rdf:resource="http://creativecommons.org/ns#Reproduction" />
        <cc:permits
           rdf:resource="http://creativecommons.org/ns#Distribution" />
        <cc:permits
           rdf:resource="http://creativecommons.org/ns#DerivativeWorks" />
      </cc:License>
    </rdf:RDF>
  </metadata>
  <g
     id="layer1"
     inkscape:groupmode="layer"
     inkscape:label="Capa 1"
     transform="translate(-58.508054,-139.09538)">
    <path
       id="path2019"
       style="font-variation-settings:normal;vector-effect:none;fill:#000000;fill-opacity:1;fill-rule:evenodd;stroke:none;stroke-width:1.00157;stroke-linecap:butt;stroke-linejoin:miter;stroke-miterlimit:4;stroke-dasharray:none;stroke-dashoffset:0;stroke-opacity:1;stop-color:#000000"
       inkscape:transform-center-x="0.96220109"
       d="m 12.072266,292.00586 c -0.63369,0 -1.154424,0.20517 -1.564454,0.61523 -0.410039,0.41003 -0.6152339,0.93079 -0.6152339,1.56446 v 39.30859 c 0,0.63371 0.2051949,1.15442 0.6152339,1.56445 0.41003,0.41003 0.930764,0.61524 1.564454,0.61524 0.63369,0 1.156376,-0.20521 1.566406,-0.61524 0.41003,-0.41003 0.615234,-0.93074 0.615234,-1.56445 v -14.92969 h 8.275391 0.949219 l 10.064453,15.99219 c 0.22366,0.37267 0.484993,0.65143 0.783203,0.83789 0.2982,0.18645 0.671831,0.2793 1.11914,0.2793 0.67096,0 1.211064,-0.16649 1.621094,-0.50195 0.41003,-0.3355 0.615235,-0.78268 0.615235,-1.3418 -10e-6,-0.44732 -0.168427,-0.95063 -0.503907,-1.50977 l -9.169922,-14.65039 c 2.64657,-0.93191 4.735362,-2.47863 6.263672,-4.64062 1.56558,-2.16199 2.347657,-4.6786 2.347657,-7.54883 -10e-6,-2.60931 -0.615604,-4.93814 -1.845703,-6.98828 -1.19282,-2.05017 -2.851853,-3.63563 -4.976563,-4.75391 -2.12472,-1.15556 -4.546448,-1.73242 -7.267578,-1.73242 z m 71.849609,0 c -0.63369,0 -1.156376,0.20517 -1.566406,0.61523 -0.37275,0.41003 -0.558594,0.93079 -0.558594,1.56446 v 12.52539 c -0.0373,0.11175 -0.05469,0.28015 -0.05469,0.5039 v 13.13868 c 0,2.90751 0.669788,5.55382 2.011718,7.93945 1.3792,2.38564 3.243427,4.26924 5.591797,5.64844 2.38564,1.34193 5.031953,2.01171 7.939453,2.01171 2.907517,0 5.536397,-0.66978 7.884767,-2.01171 2.38564,-1.3792 4.24792,-3.2628 5.58985,-5.64844 1.3792,-2.38563 2.07031,-5.03194 2.07031,-7.93945 0,-2.90751 -0.67174,-5.53448 -2.01367,-7.88282 -1.30465,-2.38567 -3.11273,-4.24988 -5.42383,-5.59179 -2.27381,-1.37922 -4.82721,-2.06836 -7.660161,-2.06836 -2.42293,0 -4.641407,0.52073 -6.654297,1.56445 -2.01289,1.00644 -3.671913,2.40411 -4.976563,4.19336 v -16.38281 c 0,-0.63367 -0.203251,-1.15443 -0.613281,-1.56446 -0.41004,-0.41006 -0.932716,-0.61523 -1.566406,-0.61523 z m 147.388675,0 c -0.59643,0 -1.09975,0.20517 -1.50977,0.61523 -0.41003,0.37274 -0.61523,0.87607 -0.61523,1.50977 v 31.87109 c 0,2.83293 0.70851,5.16176 2.125,6.98828 1.45373,1.78923 3.31601,2.6836 5.58984,2.6836 h 0.72852 c 0.7455,0 1.34174,-0.18584 1.78906,-0.5586 0.48459,-0.41003 0.72656,-0.93272 0.72656,-1.5664 0,-0.6337 -0.16841,-1.13704 -0.50391,-1.50977 -0.33546,-0.41006 -0.78264,-0.61328 -1.34179,-0.61328 h -1.39844 c -1.00646,0 -1.84465,-0.50332 -2.51562,-1.50976 -0.63368,-1.00644 -0.95118,-2.31123 -0.95118,-3.91407 v -31.87109 c 0,-0.6337 -0.20325,-1.13703 -0.61328,-1.50977 -0.37277,-0.41006 -0.87608,-0.61523 -1.50976,-0.61523 z m 41.03906,0 c -0.63367,0 -1.15442,0.20517 -1.56445,0.61523 -0.41003,0.41003 -0.61524,0.93079 -0.61524,1.56446 v 16.38281 c -1.30467,-1.78925 -2.96368,-3.18692 -4.97656,-4.19336 -2.0129,-1.04372 -4.2314,-1.56445 -6.6543,-1.56445 -2.83296,0 -5.40373,0.68914 -7.71484,2.06836 -2.27381,1.34191 -4.08189,3.20612 -5.42383,5.59179 -1.30464,2.34834 -1.95703,4.97531 -1.95703,7.88282 0,2.90751 0.66979,5.55382 2.01172,7.93945 1.3792,2.38564 3.24343,4.26924 5.5918,5.64844 2.38563,1.34193 5.03194,2.01171 7.93945,2.01171 2.90749,0 5.53639,-0.66978 7.88476,-2.01171 2.38566,-1.3792 4.2499,-3.2628 5.5918,-5.64844 1.37921,-2.38563 2.06836,-5.03194 2.06836,-7.93945 v -13.13868 c 0,-0.22362 -0.0193,-0.39202 -0.0566,-0.5039 v -12.52539 c 0,-0.63367 -0.20521,-1.15443 -0.61523,-1.56446 -0.37276,-0.41006 -0.87607,-0.61523 -1.50977,-0.61523 z m -258.095704,4.19336 h 8.275391 c 1.90106,0 3.596861,0.39104 5.087891,1.17383 1.491029,0.78279 2.646726,1.88236 3.466796,3.29883 0.85734,1.41648 1.285157,3.01936 1.285157,4.80859 0,1.7147 -0.427817,3.24403 -1.285157,4.58594 -0.82007,1.34193 -1.995127,2.40471 -3.523437,3.1875 -1.49103,0.7455 -3.16746,1.11718 -5.03125,1.11718 h -8.275391 z m 43.556641,8.61133 c -2.94478,0 -5.610454,0.66979 -7.996094,2.01172 -2.34837,1.34193 -4.193226,3.20615 -5.535156,5.59179 -1.34192,2.38563 -2.013672,5.05129 -2.013672,7.9961 0,2.94478 0.671752,5.61046 2.013672,7.99609 1.34193,2.34838 3.186786,4.19325 5.535156,5.53516 2.38564,1.34193 5.051314,2.01171 7.996094,2.01171 2.94478,0 5.591083,-0.66978 7.939453,-2.01171 2.38565,-1.34191 4.249867,-3.18678 5.591797,-5.53516 1.34193,-2.38563 2.011719,-5.05131 2.011719,-7.99609 0,-2.94481 -0.68916,-5.61047 -2.06836,-7.9961 -1.34193,-2.38564 -3.186786,-4.24986 -5.535156,-5.59179 -2.34837,-1.34193 -4.994673,-2.01172 -7.939453,-2.01172 z m 77.384763,0 c -2.94478,0 -5.61044,0.66979 -7.99609,2.01172 -2.34837,1.34193 -4.19324,3.20615 -5.53516,5.59179 -1.34193,2.38563 -2.01367,5.05129 -2.01367,7.9961 0,2.94478 0.67174,5.61046 2.01367,7.99609 1.34192,2.34838 3.18679,4.19325 5.53516,5.53516 2.38565,1.34193 5.05131,2.01171 7.99609,2.01171 2.94478,0 5.59109,-0.66978 7.93946,-2.01171 2.38565,-1.34191 4.24986,-3.18678 5.59179,-5.53516 1.34192,-2.38563 2.01172,-5.05131 2.01172,-7.99609 0,-2.94481 -0.68916,-5.61047 -2.06836,-7.9961 -1.34193,-2.38564 -3.18678,-4.24986 -5.53515,-5.59179 -2.34837,-1.34193 -4.99468,-2.01172 -7.93946,-2.01172 z m 37.01367,0 c -2.79567,0 -5.31227,0.66979 -7.54882,2.01172 -2.23654,1.34193 -3.98848,3.20615 -5.25586,5.59179 -1.26737,2.34837 -1.90039,5.01403 -1.90039,7.9961 0,2.90749 0.65238,5.55382 1.95703,7.93945 1.34193,2.34838 3.16938,4.2126 5.48047,5.5918 2.31111,1.34193 4.91868,2.01171 7.82617,2.01171 4.10034,0 7.49388,-1.24863 10.17773,-3.74609 0.37276,-0.3355 0.5586,-0.74392 0.5586,-1.22851 0,-0.55912 -0.26136,-1.06245 -0.78321,-1.50977 -0.37276,-0.2982 -0.78318,-0.44727 -1.23047,-0.44727 -0.52188,0 -1.02517,0.20521 -1.50976,0.61524 -1.82649,1.60288 -4.23082,2.4043 -7.21289,2.4043 -2.16199,0 -4.08041,-0.5033 -5.75781,-1.50977 -1.6774,-1.00643 -2.98218,-2.38671 -3.91407,-4.13867 -0.9319,-1.78923 -1.39843,-3.78316 -1.39843,-5.98242 0,-2.23655 0.42977,-4.24982 1.28711,-6.03907 0.89461,-1.78923 2.14324,-3.16755 3.74609,-4.13671 1.60288,-1.00644 3.42837,-1.50977 5.47851,-1.50977 1.64014,0 3.13072,0.31552 4.47266,0.94922 1.34193,0.59641 2.57315,1.51014 3.69141,2.74023 0.52185,0.55914 1.06194,0.83985 1.62109,0.83985 0.37276,0 0.72702,-0.11219 1.0625,-0.33594 0.6337,-0.44732 0.95117,-0.97 0.95117,-1.56641 0,-0.44732 -0.14905,-0.83836 -0.44726,-1.17383 -2.90751,-3.57848 -6.69209,-5.36718 -11.35157,-5.36718 z m 34.16407,0 c -2.94478,0 -5.61044,0.66979 -7.9961,2.01172 -2.34837,1.34193 -4.19324,3.20615 -5.53515,5.59179 -1.34193,2.38563 -2.01368,5.05129 -2.01368,7.9961 0,2.94478 0.67175,5.61046 2.01368,7.99609 1.34191,2.34838 3.18678,4.19325 5.53515,5.53516 2.38566,1.34193 5.05132,2.01171 7.9961,2.01171 2.94478,0 5.59108,-0.66978 7.93945,-2.01171 2.38564,-1.34191 4.24987,-3.18678 5.5918,-5.53516 1.34191,-2.38563 2.01172,-5.05131 2.01172,-7.99609 0,-2.94481 -0.68916,-5.61047 -2.06836,-7.9961 -1.34191,-2.38564 -3.18678,-4.24986 -5.53516,-5.59179 -2.34837,-1.34193 -4.99467,-2.01172 -7.93945,-2.01172 z m -148.562503,3.91406 c 2.16199,0 4.099773,0.50333 5.814453,1.50977 1.71469,1.00645 3.056231,2.40412 4.025391,4.19335 0.96917,1.75196 1.455078,3.74588 1.455078,5.98243 0,2.19926 -0.485908,4.19319 -1.455078,5.98242 -0.96916,1.75196 -2.310701,3.13028 -4.025391,4.13672 -1.71468,1.00646 -3.652463,1.50976 -5.814453,1.50976 -2.12472,0 -4.062493,-0.5033 -5.814453,-1.50976 -1.71469,-1.00644 -3.075592,-2.38476 -4.082032,-4.13672 -0.969169,-1.78923 -1.455078,-3.78316 -1.455078,-5.98242 0,-2.23655 0.485909,-4.23047 1.455078,-5.98243 1.00644,-1.78923 2.367342,-3.1869 4.082032,-4.19335 1.75196,-1.00644 3.689733,-1.50977 5.814453,-1.50977 z m 39.474609,0 c 2.12472,0 4.045074,0.50333 5.759764,1.50977 1.75195,1.00645 3.11286,2.40412 4.08203,4.19335 1.00644,1.75196 1.50782,3.72653 1.50782,5.92579 0,2.19928 -0.50138,4.19319 -1.50782,5.98242 -0.96917,1.75196 -2.33008,3.14966 -4.08203,4.19336 -1.71469,1.00646 -3.635044,1.50976 -5.759764,1.50976 -2.12471,0 -4.045075,-0.50134 -5.759765,-1.50781 -1.71468,-1.0437 -3.073639,-2.44335 -4.080079,-4.19531 -0.969169,-1.78923 -1.455078,-3.78314 -1.455078,-5.98242 0,-0.63368 0.01944,-1.09829 0.05664,-1.39649 0.0373,-0.0746 0.05469,-0.16938 0.05469,-0.28125 0.37275,-2.90752 1.584606,-5.29247 3.634766,-7.15625 2.08744,-1.86379 4.604048,-2.79492 7.548828,-2.79492 z m 37.910154,0 c 2.16199,0 4.09978,0.50333 5.81446,1.50977 1.71468,1.00645 3.05622,2.40412 4.02539,4.19335 0.96917,1.75196 1.45312,3.74588 1.45312,5.98243 0,2.19926 -0.48395,4.19319 -1.45312,5.98242 -0.96917,1.75196 -2.31071,3.13028 -4.02539,4.13672 -1.71468,1.00646 -3.65247,1.50976 -5.81446,1.50976 -2.12472,0 -4.06444,-0.5033 -5.8164,-1.50976 -1.71468,-1.00644 -3.0756,-2.38476 -4.08203,-4.13672 -0.96917,-1.78923 -1.45313,-3.78316 -1.45313,-5.98242 0,-2.23655 0.48396,-4.23047 1.45313,-5.98243 1.00643,-1.78923 2.36735,-3.1869 4.08203,-4.19335 1.75196,-1.00644 3.69168,-1.50977 5.8164,-1.50977 z m 71.17774,0 c 2.16199,0 4.09978,0.50333 5.81445,1.50977 1.7147,1.00645 3.05622,2.40412 4.02539,4.19335 0.96915,1.75196 1.45313,3.74588 1.45313,5.98243 0,2.19926 -0.48398,4.19319 -1.45313,5.98242 -0.96917,1.75196 -2.31069,3.13028 -4.02539,4.13672 -1.71467,1.00646 -3.65246,1.50976 -5.81445,1.50976 -2.12472,0 -4.06445,-0.5033 -5.81641,-1.50976 -1.71468,-1.00644 -3.07362,-2.38476 -4.08008,-4.13672 -0.96917,-1.78923 -1.45508,-3.78316 -1.45508,-5.98242 0,-2.23655 0.48591,-4.23047 1.45508,-5.98243 1.00646,-1.78923 2.3654,-3.1869 4.08008,-4.19335 1.75196,-1.00644 3.69169,-1.50977 5.81641,-1.50977 z m 52.61328,0 c 2.94478,0 5.44202,0.93113 7.49219,2.79492 2.08743,1.86378 3.31863,4.24873 3.6914,7.15625 0,0.11187 0.0174,0.20666 0.0547,0.28125 0.0373,0.2982 0.0566,0.76281 0.0566,1.39649 0,2.19928 -0.50333,4.19319 -1.50977,5.98242 -0.96917,1.75196 -2.31072,3.14966 -4.02539,4.19336 -1.7147,1.00646 -3.63506,1.50976 -5.75976,1.50976 -2.12472,0 -4.0625,-0.5033 -5.81445,-1.50976 -1.71467,-1.0437 -3.07558,-2.4414 -4.08204,-4.19336 -0.96917,-1.78923 -1.45312,-3.78314 -1.45312,-5.98242 0,-2.19926 0.48395,-4.17383 1.45312,-5.92579 1.00646,-1.78923 2.36737,-3.1869 4.08204,-4.19335 1.75195,-1.00644 3.68973,-1.50977 5.81445,-1.50977 z m -25.04102,35.05664 c -0.29846,0 -0.55076,0.10349 -0.75586,0.30859 -0.2051,0.18651 -0.30664,0.43686 -0.30664,0.75391 v 15.94727 c 0,1.41742 0.35379,2.5822 1.0625,3.49609 0.72735,0.89522 1.65919,1.34375 2.79688,1.34375 h 0.36523 c 0.37306,0 0.67078,-0.0928 0.89453,-0.2793 0.24239,-0.20516 0.36328,-0.46612 0.36328,-0.7832 0,-0.3171 -0.0841,-0.5694 -0.25195,-0.75586 -0.16787,-0.2051 -0.39211,-0.30859 -0.67187,-0.30859 h -0.69922 c -0.50356,0 -0.9221,-0.25035 -1.25781,-0.75391 -0.31705,-0.50355 -0.47657,-1.15701 -0.47657,-1.95898 v -15.94727 c 0,-0.3171 -0.10154,-0.56746 -0.30664,-0.75391 -0.18651,-0.2051 -0.43881,-0.30859 -0.75586,-0.30859 z m 7.88867,0 c -0.29846,0 -0.55076,0.10349 -0.75586,0.30859 -0.20509,0.18651 -0.30664,0.43686 -0.30664,0.75391 v 15.94727 c 0,1.41742 0.35376,2.5822 1.0625,3.49609 0.72736,0.89522 1.66116,1.34375 2.79883,1.34375 h 0.36328 c 0.37306,0 0.67079,-0.0928 0.89453,-0.2793 0.24239,-0.20516 0.36329,-0.46612 0.36329,-0.7832 0,-0.3171 -0.0841,-0.5694 -0.25196,-0.75586 -0.16786,-0.2051 -0.39016,-0.30859 -0.66992,-0.30859 h -0.70117 c -0.50356,0 -0.92211,-0.25035 -1.25781,-0.75391 -0.31705,-0.50355 -0.47657,-1.15701 -0.47657,-1.95898 v -15.94727 c 0,-0.3171 -0.10154,-0.56746 -0.30664,-0.75391 -0.18651,-0.2051 -0.43881,-0.30859 -0.75586,-0.30859 z m -48.0332,1.67969 c -0.31711,0 -0.5781,0.10154 -0.7832,0.30664 -0.18645,0.20516 -0.2793,0.46614 -0.2793,0.7832 v 4.33594 h -1.81836 c -0.29846,0 -0.54205,0.0948 -0.72851,0.28125 -0.16781,0.16786 -0.25196,0.39015 -0.25196,0.66992 0,0.26114 0.0841,0.48542 0.25196,0.67188 0.18651,0.16781 0.4301,0.25195 0.72851,0.25195 h 1.81836 v 7.46875 c 0,1.02579 0.21363,1.94892 0.64258,2.76953 0.44763,0.80197 1.0624,1.44673 1.8457,1.93164 0.78332,0.46627 1.66974,0.69922 2.65821,0.69922 h 0.58789 c 0.33577,0 0.6161,-0.10349 0.83984,-0.30859 0.22375,-0.20518 0.33398,-0.4555 0.33398,-0.75391 0,-0.3171 -0.0928,-0.58006 -0.27929,-0.78516 -0.18651,-0.2051 -0.42816,-0.30664 -0.72657,-0.30664 h -0.75585 c -0.87657,0 -1.5948,-0.29772 -2.1543,-0.89453 -0.55952,-0.61546 -0.83985,-1.40038 -0.83985,-2.35156 v -7.46875 h 3.16211 c 0.29846,0 0.53141,-0.0841 0.69922,-0.25195 0.18645,-0.18648 0.2793,-0.41077 0.2793,-0.67188 0,-0.27982 -0.0928,-0.50211 -0.2793,-0.66992 -0.16786,-0.18645 -0.40081,-0.28125 -0.69922,-0.28125 h -3.16211 v -4.33594 c 0,-0.31711 -0.10154,-0.5781 -0.30664,-0.7832 -0.20515,-0.2051 -0.46615,-0.30664 -0.7832,-0.30664 z m -13.5957,4.69922 c -1.02576,0 -1.97695,0.19623 -2.85352,0.58789 -0.87658,0.39166 -1.62283,0.93297 -2.23828,1.62304 v -0.95117 c 0,-0.31711 -0.10349,-0.58005 -0.30859,-0.78515 -0.18651,-0.2051 -0.43686,-0.30664 -0.75391,-0.30665 -0.31713,0 -0.5781,0.10155 -0.7832,0.30665 -0.2051,0.20515 -0.3086,0.46809 -0.3086,0.78515 v 13.14844 c 0,0.31713 0.1035,0.57809 0.3086,0.7832 0.20516,0.18645 0.46612,0.2793 0.7832,0.2793 0.3171,0 0.56746,-0.0928 0.75391,-0.2793 0.2051,-0.20516 0.30859,-0.46612 0.30859,-0.7832 v -8.28125 c 0,-0.76467 0.21363,-1.45485 0.64258,-2.07031 0.42895,-0.6341 1.00699,-1.12806 1.73437,-1.48242 0.746,-0.35437 1.57638,-0.53126 2.49024,-0.53126 1.49203,0 2.69548,0.43789 3.60937,1.31446 0.93251,0.85793 1.39844,2.1155 1.39844,3.77539 v 7.27539 c 0,0.29849 0.1035,0.54881 0.3086,0.75391 0.20514,0.2051 0.46615,0.30859 0.7832,0.30859 0.29846,0 0.5488,-0.10349 0.7539,-0.30859 0.2051,-0.20518 0.3086,-0.4555 0.3086,-0.75391 v -7.27539 c 0,-1.49203 -0.29772,-2.76895 -0.89453,-3.83203 -0.59684,-1.08172 -1.42719,-1.90141 -2.49024,-2.46094 -1.04444,-0.55949 -2.22856,-0.83984 -3.55273,-0.83984 z m 29.84961,0 0.002,0.002 c -0.96983,0 -1.87558,0.21363 -2.71484,0.64258 -0.83928,0.42895 -1.52947,1.03504 -2.07032,1.81836 v -1.23047 c 0,-0.33575 -0.0928,-0.59675 -0.27929,-0.7832 -0.18651,-0.18646 -0.44751,-0.2793 -0.78321,-0.2793 -0.33577,0 -0.59675,0.0928 -0.7832,0.2793 -0.18646,0.1865 -0.2793,0.4475 -0.2793,0.7832 v 13.17578 c 0,0.33578 0.0928,0.59674 0.2793,0.7832 0.1865,0.18645 0.44748,0.28125 0.7832,0.28125 0.33575,0 0.59676,-0.0948 0.78321,-0.28125 0.18646,-0.18651 0.27929,-0.44747 0.27929,-0.7832 v -8.36328 c 0,-1.19362 0.43984,-2.16416 1.31641,-2.91016 0.89522,-0.74603 2.04067,-1.11914 3.43945,-1.11914 0.29843,0 0.52272,0.008 0.67188,0.0254 0.41036,0.0373 0.69938,0.0566 0.86719,0.0566 0.27979,0 0.49537,-0.0455 0.64453,-0.13867 0.16781,-0.0933 0.2887,-0.27208 0.36328,-0.5332 0.0176,-0.0559 0.0254,-0.13812 0.0254,-0.25 0,-0.37306 -0.23295,-0.66404 -0.69922,-0.86914 -0.44759,-0.2051 -1.06238,-0.30664 -1.8457,-0.30664 z m 62.74804,0 0.002,0.002 c -0.96982,0 -1.87363,0.21363 -2.71289,0.64258 -0.83928,0.42895 -1.52947,1.03504 -2.07032,1.81836 v -1.23047 c 0,-0.33575 -0.0928,-0.59675 -0.27929,-0.7832 -0.18651,-0.18646 -0.44751,-0.2793 -0.78321,-0.2793 -0.33575,0 -0.59675,0.0928 -0.7832,0.2793 -0.18646,0.1865 -0.28125,0.4475 -0.28125,0.7832 v 13.17578 c 0,0.33578 0.0948,0.59674 0.28125,0.7832 0.1865,0.18645 0.4475,0.28125 0.7832,0.28125 0.33575,0 0.59676,-0.0948 0.78321,-0.28125 0.18646,-0.18651 0.27929,-0.44747 0.27929,-0.7832 v -8.36328 c 0,-1.19362 0.43789,-2.16416 1.31446,-2.91016 0.89522,-0.74603 2.04262,-1.11914 3.4414,-1.11914 0.29845,0 0.52272,0.008 0.67188,0.0254 0.41033,0.0373 0.69938,0.0566 0.86719,0.0566 0.27981,0 0.4934,-0.0455 0.64257,-0.13867 0.16781,-0.0933 0.28871,-0.27208 0.36329,-0.5332 0.0176,-0.0559 0.0273,-0.13812 0.0273,-0.25 0,-0.37306 -0.23297,-0.66404 -0.69922,-0.86914 -0.44762,-0.2051 -1.06434,-0.30664 -1.84766,-0.30664 z m -128.91015,0.0273 c -1.39878,0 -2.65833,0.33639 -3.77735,1.00781 -1.11903,0.67139 -1.99478,1.60326 -2.6289,2.79688 -0.63411,1.17498 -0.95117,2.50992 -0.95117,4.00195 0,1.45475 0.32574,2.77707 0.97851,3.9707 0.67141,1.17498 1.58587,2.10876 2.74219,2.79883 1.15633,0.67142 2.46129,1.00586 3.91602,1.00586 2.05153,0 3.74896,-0.62346 5.09179,-1.87305 0.1865,-0.16791 0.2793,-0.37283 0.2793,-0.61523 0,-0.27981 -0.12953,-0.53212 -0.39063,-0.75586 -0.18651,-0.14917 -0.39338,-0.22461 -0.61718,-0.22461 -0.26109,0 -0.51144,0.1035 -0.75391,0.3086 -0.91387,0.80195 -2.11735,1.20312 -3.60937,1.20312 -1.08172,0 -2.04159,-0.2523 -2.88086,-0.75586 -0.83927,-0.50355 -1.49273,-1.19373 -1.95899,-2.07031 -0.46626,-0.89522 -0.69922,-1.89181 -0.69922,-2.99219 0,-1.11901 0.21362,-2.12626 0.64258,-3.02148 0.44761,-0.89522 1.07304,-1.58541 1.875,-2.07032 0.80197,-0.50356 1.71642,-0.75586 2.74219,-0.75586 0.82062,0 1.56687,0.15756 2.23828,0.47461 0.67142,0.2984 1.28619,0.75564 1.8457,1.3711 0.2611,0.27976 0.5308,0.41992 0.81055,0.41992 0.1865,0 0.36534,-0.0561 0.5332,-0.16797 0.31705,-0.22379 0.47461,-0.48479 0.47461,-0.7832 0,-0.22385 -0.0754,-0.42008 -0.22461,-0.58789 -1.45473,-1.79044 -3.34643,-2.68555 -5.67773,-2.68555 z m 17.0918,0 c -1.47338,0 -2.80639,0.33639 -4,1.00781 -1.17498,0.67139 -2.09813,1.60326 -2.76954,2.79688 -0.67141,1.19363 -1.00781,2.52857 -1.00781,4.00195 0,1.47339 0.3364,2.80638 1.00781,4 0.67141,1.17498 1.59456,2.09811 2.76954,2.76953 1.19361,0.67142 2.52662,1.00586 4,1.00586 1.47337,0 2.79767,-0.33444 3.97265,-1.00586 1.19363,-0.67142 2.12741,-1.59455 2.79883,-2.76953 0.6714,-1.19362 1.00586,-2.52661 1.00586,-4 0,-1.47338 -0.3451,-2.80832 -1.03516,-4.00195 -0.6714,-1.19362 -1.59455,-2.12549 -2.76953,-2.79688 -1.17498,-0.67142 -2.49928,-1.00781 -3.97265,-1.00781 z m 60.48437,0 c -1.47336,0 -2.8083,0.33639 -4.00195,1.00781 -1.17495,0.67139 -2.09811,1.60326 -2.76953,2.79688 -0.67142,1.19363 -1.00586,2.52857 -1.00586,4.00195 0,1.47339 0.33444,2.80638 1.00586,4 0.67142,1.17498 1.59458,2.09811 2.76953,2.76953 1.19365,0.67142 2.52859,1.00586 4.00195,1.00586 1.47339,0 2.79768,-0.33444 3.97266,-1.00586 1.19363,-0.67142 2.12545,-1.59455 2.79687,-2.76953 0.67142,-1.19362 1.00781,-2.52661 1.00781,-4 0,-1.47338 -0.34508,-2.80832 -1.03515,-4.00195 -0.67142,-1.19362 -1.59455,-2.12549 -2.76953,-2.79688 -1.17498,-0.67142 -2.49927,-1.00781 -3.97266,-1.00781 z m 33.76563,0 c -1.41742,0 -2.68567,0.33639 -3.80469,1.00781 -1.10039,0.65275 -1.96747,1.5759 -2.60157,2.76953 -0.61545,1.17498 -0.92382,2.51863 -0.92382,4.0293 0,1.49204 0.32772,2.83371 0.98047,4.02734 0.67142,1.17498 1.59455,2.09812 2.76953,2.76954 1.17498,0.65277 2.50797,0.97851 4,0.97851 0.87657,0 1.79102,-0.16622 2.74218,-0.50195 0.95118,-0.35434 1.73415,-0.79418 2.34961,-1.31641 0.2051,-0.18656 0.30664,-0.40019 0.30664,-0.64258 0,-0.27981 -0.12089,-0.53211 -0.36328,-0.75586 -0.20521,-0.14917 -0.41012,-0.22265 -0.61523,-0.22265 -0.26116,0 -0.51346,0.0928 -0.75586,0.2793 -0.41033,0.35441 -0.96032,0.65214 -1.65039,0.89453 -0.67139,0.22375 -1.34225,0.33593 -2.01367,0.33593 -1.56664,0 -2.87161,-0.4746 -3.91602,-1.42578 -1.04446,-0.95118 -1.64184,-2.19137 -1.79101,-3.7207 H 261.25 c 0.29844,0 0.5401,-0.0841 0.72656,-0.25195 0.18645,-0.18651 0.2793,-0.43012 0.2793,-0.72852 0,-1.45472 -0.29771,-2.75098 -0.89453,-3.88867 -0.57816,-1.13766 -1.39788,-2.02212 -2.46094,-2.65625 -1.06308,-0.65275 -2.28589,-0.98047 -3.66601,-0.98047 z m 0,1.93164 c 1.39877,10e-6 2.54618,0.43787 3.4414,1.31445 0.89526,0.87657 1.41725,2.03268 1.56641,3.46875 h -10.23828 c 0.20515,-1.43607 0.77256,-2.59218 1.70507,-3.46875 0.93253,-0.87658 2.10798,-1.31445 3.5254,-1.31445 z m -94.25,0.0273 c 1.08171,0 2.05223,0.2523 2.91015,0.75586 0.85791,0.50356 1.52876,1.20245 2.01367,2.09766 0.48491,0.87658 0.72852,1.87513 0.72852,2.99414 0,1.10038 -0.24361,2.09697 -0.72852,2.99219 -0.48491,0.87658 -1.15576,1.56676 -2.01367,2.07031 -0.85792,0.50356 -1.82844,0.75586 -2.91015,0.75586 -1.06307,0 -2.03165,-0.2523 -2.90821,-0.75586 -0.85792,-0.50355 -1.53941,-1.19373 -2.04297,-2.07031 -0.48491,-0.89522 -0.72656,-1.89181 -0.72656,-2.99219 0,-1.11901 0.24165,-2.11756 0.72656,-2.99414 0.50356,-0.89521 1.18505,-1.5941 2.04297,-2.09766 0.87656,-0.50356 1.84514,-0.75586 2.90821,-0.75586 z m 60.48437,0 c 1.08173,0 2.05027,0.2523 2.9082,0.75586 0.85793,0.50356 1.53074,1.20245 2.01563,2.09766 0.48492,0.87658 0.72655,1.87513 0.72656,2.99414 -10e-6,1.10038 -0.24164,2.09697 -0.72656,2.99219 -0.48489,0.87658 -1.1577,1.56676 -2.01563,2.07031 -0.85793,0.50356 -1.82647,0.75586 -2.9082,0.75586 -1.06305,0 -2.03359,-0.2523 -2.91016,-0.75586 -0.85793,-0.50355 -1.53745,-1.19373 -2.04101,-2.07031 -0.48491,-0.89522 -0.72852,-1.89181 -0.72852,-2.99219 0,-1.11901 0.24361,-2.11756 0.72852,-2.99414 0.50356,-0.89521 1.18308,-1.5941 2.04101,-2.09766 0.87657,-0.50356 1.84711,-0.75586 2.91016,-0.75586 z"
       transform="matrix(0.26458333,0,0,0.26458333,55.890643,61.8355)" />
  </g>
</svg>
